<svg width="50" height="50" viewBox="0 0 50 50" fill="none" xmlns="http://www.w3.org/2000/svg">
<path d="M35.031 22.257C31.857 22.257 31.416 25.425 31.416 25.425H38.164C38.164 25.425 38.207 22.257 35.031 22.257Z" fill="white"/>
<path d="M19.721 25.425H13.739V30.917H19.035C19.125 30.917 19.26 30.919 19.418 30.917C20.27 30.897 21.885 30.649 21.885 28.247C21.885 25.396 19.721 25.425 19.721 25.425Z" fill="white"/>
<path d="M25.348 0.100998C11.748 0.100998 0.723022 11.124 0.723022 24.724C0.723022 38.324 11.748 49.349 25.348 49.349C38.946 49.349 49.971 38.324 49.971 24.724C49.971 11.125 38.945 0.100998 25.348 0.100998ZM30.531 15.231H39.008V17.761H30.531V15.231V15.231ZM26.246 28.503C26.246 34.774 19.721 34.567 19.721 34.567H13.739H13.564H9.02902V14.021H13.564H13.739H19.721C22.969 14.021 25.533 15.815 25.533 19.491C25.533 23.167 22.398 23.401 22.398 23.401C26.531 23.401 26.246 28.503 26.246 28.503ZM42.104 28.167H31.457C31.457 31.983 35.072 31.743 35.072 31.743C38.486 31.743 38.367 29.532 38.367 29.532H41.984C41.984 35.399 34.951 34.997 34.951 34.997C26.515 34.997 27.058 27.142 27.058 27.142C27.058 27.142 27.05 19.249 34.951 19.249C43.268 19.249 42.104 28.167 42.104 28.167Z" fill="white"/>
<path d="M21.174 19.81C21.174 17.673 19.721 17.673 19.721 17.673H18.951H13.739V22.257H19.35C20.318 22.257 21.174 21.946 21.174 19.81Z" fill="white"/>
</svg>
