<svg width="142" height="100" viewBox="0 0 142 100" fill="none" xmlns="http://www.w3.org/2000/svg">
<path d="M0 1.25C0 0.559643 0.559644 0 1.25 0H140C140.69 0 141.25 0.559644 141.25 1.25V50H0V1.25Z" fill="#0487D0"/>
<path d="M16.2109 8.84766H32.5195C34.5117 8.84766 36.2435 9.0625 37.7148 9.49219C39.1992 9.90885 40.4297 10.4883 41.4062 11.2305C42.3828 11.9727 43.1055 12.8581 43.5742 13.8867C44.056 14.9023 44.2969 16.0026 44.2969 17.1875C44.2969 19.1276 43.6849 20.8268 42.4609 22.2852C43.8672 23.1185 44.9154 24.1992 45.6055 25.5273C46.2956 26.8555 46.6406 28.3659 46.6406 30.0586C46.6406 31.4779 46.3997 32.7604 45.918 33.9062C45.4492 35.0521 44.7266 36.0352 43.75 36.8555C42.7865 37.6628 41.5625 38.2878 40.0781 38.7305C38.6068 39.1602 36.8685 39.375 34.8633 39.375H16.2109V8.84766ZM34.9023 20.5664C35.4362 20.5664 35.957 20.5859 36.4648 20.625C37.3372 19.7917 37.7734 18.8411 37.7734 17.7734C37.7734 16.6667 37.3372 15.8138 36.4648 15.2148C35.6055 14.6029 34.3424 14.2969 32.6758 14.2969H22.4023V20.5664H34.9023ZM35.0195 33.9844C36.6862 33.9844 37.9492 33.6263 38.8086 32.9102C39.681 32.194 40.1172 31.1849 40.1172 29.8828C40.1172 28.5807 39.681 27.5651 38.8086 26.8359C37.9492 26.1068 36.6862 25.7422 35.0195 25.7422H22.4023V33.9844H35.0195Z" fill="white"/>
<path d="M52.3633 6.97266H58.1445V39.375H52.3633V6.97266Z" fill="white"/>
<path d="M65.5664 16.3086H71.3281V27.5586C71.3281 28.6263 71.4453 29.6029 71.6797 30.4883C71.9141 31.3607 72.3112 32.1094 72.8711 32.7344C73.444 33.3594 74.1992 33.8477 75.1367 34.1992C76.0872 34.5378 77.2656 34.707 78.6719 34.707C79.3359 34.707 80.0065 34.6354 80.6836 34.4922C81.3737 34.349 82.0312 34.1536 82.6562 33.9062C83.2812 33.6458 83.8607 33.3398 84.3945 32.9883C84.9414 32.6367 85.4102 32.2526 85.8008 31.8359V16.3086H91.582V39.375H85.8008V37.4023C84.3815 38.2487 82.9557 38.8542 81.5234 39.2188C80.0911 39.5833 78.7305 39.7656 77.4414 39.7656C75.332 39.7656 73.5221 39.5117 72.0117 39.0039C70.5143 38.4961 69.2839 37.7604 68.3203 36.7969C67.3698 35.8203 66.6732 34.6289 66.2305 33.2227C65.7878 31.8034 65.5664 30.1888 65.5664 28.3789V16.3086Z" fill="white"/>
<path d="M97.832 27.7734C97.832 26.2109 98.151 24.7201 98.7891 23.3008C99.4271 21.8685 100.345 20.6055 101.543 19.5117C102.741 18.418 104.206 17.5456 105.938 16.8945C107.682 16.2435 109.661 15.918 111.875 15.918C114.076 15.918 116.055 16.25 117.812 16.9141C119.583 17.5651 121.081 18.4635 122.305 19.6094C123.542 20.7552 124.486 22.1029 125.137 23.6523C125.801 25.2018 126.133 26.862 126.133 28.6328C126.133 28.8542 126.126 29.0951 126.113 29.3555C126.113 29.6029 126.1 29.8307 126.074 30.0391H104.277C104.525 30.7292 104.922 31.3607 105.469 31.9336C106.029 32.5065 106.725 33.0013 107.559 33.418C108.392 33.8346 109.355 34.1602 110.449 34.3945C111.543 34.6159 112.754 34.7266 114.082 34.7266C115.41 34.7266 116.732 34.5898 118.047 34.3164C119.362 34.0299 120.618 33.6719 121.816 33.2422L123.77 37.6562C123.014 38.0078 122.246 38.3203 121.465 38.5938C120.697 38.8542 119.889 39.0755 119.043 39.2578C118.21 39.4271 117.331 39.5573 116.406 39.6484C115.495 39.7396 114.531 39.7852 113.516 39.7852C110.924 39.7852 108.652 39.4727 106.699 38.8477C104.746 38.2227 103.112 37.3698 101.797 36.2891C100.482 35.2083 99.4922 33.9388 98.8281 32.4805C98.1641 31.0221 97.832 29.4531 97.832 27.7734ZM120 25.5273C119.792 24.8893 119.466 24.2969 119.023 23.75C118.594 23.1901 118.053 22.7083 117.402 22.3047C116.751 21.888 115.996 21.5625 115.137 21.3281C114.277 21.0938 113.333 20.9766 112.305 20.9766C111.211 20.9766 110.215 21.1003 109.316 21.3477C108.418 21.5951 107.63 21.9271 106.953 22.3438C106.276 22.7604 105.71 23.2422 105.254 23.7891C104.811 24.3359 104.486 24.9154 104.277 25.5273H120Z" fill="white"/>
<path d="M0 50H141.25V98.75C141.25 99.4404 140.69 100 140 100H1.25C0.559645 100 0 99.4404 0 98.75V50Z" fill="white"/>
<path fill-rule="evenodd" clip-rule="evenodd" d="M139.688 51.5625H1.5625V98.4375H139.688V51.5625ZM0 50V98.75C0 99.4404 0.559645 100 1.25 100H140C140.69 100 141.25 99.4404 141.25 98.75V50H0Z" fill="#0487D0"/>
<path d="M16.6992 58.8477H23.457L31.7383 78.5547L33.6523 83.3203L35.1562 78.5547L38.2031 71.3672L32.7148 58.8477H39.082L41.3281 64.8047L43.418 58.8477H49.7852L44.2969 71.3672L47.4023 78.7109L49.2773 83.3203L50.7227 78.6328L59.043 58.8477H65.8008L52.3242 89.375H46.1914L43.4766 83.3203L41.2695 77.4414L39.0625 83.3203L36.3086 89.375H30.1758L16.6992 58.8477Z" fill="#0487D0"/>
<path d="M72.8516 63.1836C72.2786 63.1836 71.7578 63.1055 71.2891 62.9492C70.8333 62.7799 70.4427 62.5586 70.1172 62.2852C69.7917 61.9987 69.5378 61.6732 69.3555 61.3086C69.1862 60.931 69.1016 60.5339 69.1016 60.1172C69.1016 59.6875 69.1862 59.2904 69.3555 58.9258C69.5378 58.5482 69.7917 58.2227 70.1172 57.9492C70.4427 57.6758 70.8333 57.4609 71.2891 57.3047C71.7578 57.1354 72.2786 57.0508 72.8516 57.0508C73.4375 57.0508 73.9583 57.1354 74.4141 57.3047C74.8828 57.4609 75.2799 57.6758 75.6055 57.9492C75.931 58.2227 76.1784 58.5482 76.3477 58.9258C76.5299 59.2904 76.6211 59.6875 76.6211 60.1172C76.6211 60.5339 76.5299 60.931 76.3477 61.3086C76.1784 61.6732 75.931 61.9987 75.6055 62.2852C75.2799 62.5586 74.8828 62.7799 74.4141 62.9492C73.9583 63.1055 73.4375 63.1836 72.8516 63.1836ZM69.9609 66.3281H75.7422V89.375H69.9609V66.3281Z" fill="#0487D0"/>
<path d="M83.8867 58.8477H111.191V64.2773H90.0781V72.2656H108.008V77.3633H90.0781V89.375H83.8867V58.8477Z" fill="#0487D0"/>
<path d="M116.602 66.3281H122.383V89.375H116.602V77.8516V66.3281Z" fill="#0487D0"/>
<path d="M121.562 62.1875C121.562 63.223 120.723 64.0625 119.688 64.0625C118.652 64.0625 117.812 63.223 117.812 62.1875C117.812 61.152 118.652 60.3125 119.688 60.3125C120.723 60.3125 121.562 61.152 121.562 62.1875Z" fill="#0487D0"/>
<path fill-rule="evenodd" clip-rule="evenodd" d="M121.604 59.3783C120.546 58.7944 119.156 58.6842 118.187 58.7811C117.844 58.8154 117.537 58.5648 117.503 58.2214C117.469 57.8779 117.719 57.5716 118.063 57.5373C119.177 57.4258 120.85 57.5344 122.208 58.2838C122.899 58.6648 123.521 59.2193 123.929 60.0033C124.338 60.7883 124.508 61.7556 124.371 62.9197C124.33 63.2625 124.02 63.5077 123.677 63.4674C123.334 63.4271 123.089 63.1165 123.129 62.7736C123.242 61.8127 123.094 61.1056 122.821 60.5807C122.547 60.0547 122.122 59.664 121.604 59.3783Z" fill="#0487D0"/>
<path fill-rule="evenodd" clip-rule="evenodd" d="M124.069 56.757C122.223 55.6978 119.836 55.5092 118.19 55.6805C117.846 55.7162 117.539 55.4668 117.503 55.1235C117.468 54.7801 117.717 54.4729 118.06 54.4372C119.86 54.2499 122.539 54.4378 124.691 55.6729C125.778 56.297 126.74 57.1946 127.368 58.4491C127.996 59.7034 128.269 61.2697 128.051 63.1952C128.012 63.5382 127.703 63.7848 127.36 63.746C127.017 63.7072 126.77 63.3977 126.809 63.0547C127.005 61.3236 126.751 60.0085 126.251 59.0087C125.75 58.0092 124.98 57.2801 124.069 56.757Z" fill="#0487D0"/>
</svg>
