<svg width="350" height="96" viewBox="0 0 350 96" fill="none" xmlns="http://www.w3.org/2000/svg">
<path fill-rule="evenodd" clip-rule="evenodd" d="M46.6852 0H56.1879V45.1989H46.6852V0ZM23.0868 45.9299C18.7415 45.9299 14.8023 44.9959 11.2693 43.1278C7.77682 41.2192 5.01534 38.5998 2.98484 35.2698C0.994945 31.8992 0 28.1021 0 23.8787C0 19.6552 0.994945 15.8785 2.98484 12.5485C5.01534 9.17786 7.77682 6.55852 11.2693 4.69046C14.8023 2.78179 18.7618 1.82745 23.1477 1.82745C26.8432 1.82745 30.1732 2.47721 33.1378 3.77673C36.1429 5.07625 38.6607 6.94431 40.6912 9.38091L34.3561 15.2288C31.4728 11.8987 27.8991 10.2337 23.635 10.2337C20.9954 10.2337 18.64 10.8226 16.5689 12.0003C14.4978 13.1373 12.8734 14.7414 11.6957 16.8125C10.5586 18.8837 9.99006 21.239 9.99006 23.8787C9.99006 26.5183 10.5586 28.8737 11.6957 30.9448C12.8734 33.0159 14.4978 34.6403 16.5689 35.818C18.64 36.9551 20.9954 37.5236 23.635 37.5236C27.8991 37.5236 31.4728 35.8383 34.3561 32.4677L40.6912 38.3155C38.6607 40.7928 36.1429 42.6811 33.1378 43.9806C30.1326 45.2802 26.7823 45.9299 23.0868 45.9299ZM96.9267 31.4931C97.0485 29.9093 97.1095 29.0565 97.1095 28.9346C97.1095 25.5234 96.3582 22.5386 94.8556 19.9801C93.3937 17.3811 91.3632 15.3912 88.7641 14.0105C86.1651 12.6297 83.2615 11.9393 80.0533 11.9393C76.7639 11.9393 73.779 12.6703 71.0988 14.1323C68.4591 15.5536 66.3677 17.5638 64.8245 20.1629C63.3219 22.7213 62.5707 25.6046 62.5707 28.8128C62.5707 32.0616 63.3422 34.9652 64.8854 37.5236C66.4286 40.0821 68.6215 42.0923 71.4642 43.5542C74.3069 44.9756 77.576 45.6863 81.2716 45.6863C87.2006 45.6863 91.7083 43.9197 94.7947 40.3866L89.7387 34.9043C88.6017 36.0008 87.3631 36.813 86.0229 37.3409C84.7234 37.8282 83.2208 38.0719 81.5152 38.0719C79.038 38.0719 76.9669 37.483 75.3019 36.3053C73.6369 35.1277 72.581 33.5236 72.1343 31.4931H96.9267ZM74.6927 20.9548C76.1547 19.7365 77.9618 19.1273 80.1142 19.1273C82.2259 19.1273 84.0127 19.7568 85.4747 21.0157C86.9367 22.234 87.8301 23.8787 88.155 25.9498H72.0125C72.3374 23.8381 73.2308 22.1731 74.6927 20.9548ZM119.03 45.6863C115.578 45.6863 112.472 44.9756 109.71 43.5542C106.989 42.0923 104.857 40.0821 103.314 37.5236C101.771 34.9652 100.999 32.0616 100.999 28.8128C100.999 25.564 101.771 22.6604 103.314 20.102C104.857 17.5435 106.989 15.5536 109.71 14.1323C112.472 12.6703 115.578 11.9393 119.03 11.9393C122.482 11.9393 125.569 12.6703 128.289 14.1323C131.01 15.5536 133.142 17.5435 134.685 20.102C136.229 22.6604 137 25.564 137 28.8128C137 32.0616 136.229 34.9652 134.685 37.5236C133.142 40.0821 131.01 42.0923 128.289 43.5542C125.569 44.9756 122.482 45.6863 119.03 45.6863ZM119.03 37.8891C121.467 37.8891 123.457 37.0769 125 35.4525C126.584 33.7875 127.376 31.5743 127.376 28.8128C127.376 26.0513 126.584 23.8584 125 22.234C123.457 20.569 121.467 19.7365 119.03 19.7365C116.594 19.7365 114.583 20.569 113 22.234C111.416 23.8584 110.624 26.0513 110.624 28.8128C110.624 31.5743 111.416 33.7875 113 35.4525C114.583 37.0769 116.594 37.8891 119.03 37.8891ZM200.381 45.1989V2.55843H190.513V19.371H171.142V2.55843H161.273V45.1989H171.142V27.7163H190.513V45.1989H200.381ZM241.902 28.9346C241.902 29.0565 241.841 29.9093 241.719 31.4931H216.926C217.373 33.5236 218.429 35.1277 220.094 36.3053C221.759 37.483 223.83 38.0719 226.307 38.0719C228.013 38.0719 229.516 37.8282 230.815 37.3409C232.155 36.813 233.394 36.0008 234.531 34.9043L239.587 40.3866C236.5 43.9197 231.993 45.6863 226.064 45.6863C222.368 45.6863 219.099 44.9756 216.256 43.5542C213.414 42.0923 211.221 40.0821 209.678 37.5236C208.134 34.9652 207.363 32.0616 207.363 28.8128C207.363 25.6046 208.114 22.7213 209.617 20.1629C211.16 17.5638 213.251 15.5536 215.891 14.1323C218.571 12.6703 221.556 11.9393 224.845 11.9393C228.054 11.9393 230.957 12.6297 233.556 14.0105C236.155 15.3912 238.186 17.3811 239.648 19.9801C241.15 22.5386 241.902 25.5234 241.902 28.9346ZM224.906 19.1273C222.754 19.1273 220.947 19.7365 219.485 20.9548C218.023 22.1731 217.129 23.8381 216.805 25.9498H232.947C232.622 23.8787 231.729 22.234 230.267 21.0157C228.805 19.7568 227.018 19.1273 224.906 19.1273ZM277.955 15.5942C275.477 13.1576 272.208 11.9393 268.147 11.9393C265.914 11.9393 263.863 12.3251 261.995 13.0967C260.127 13.8277 258.563 14.8836 257.305 16.2643V12.4267H248.228V45.1989H257.731V28.9955C257.731 26.0716 258.442 23.8787 259.863 22.4167C261.284 20.9142 263.193 20.1629 265.589 20.1629C267.741 20.1629 269.386 20.8126 270.523 22.1121C271.66 23.3711 272.229 25.3 272.229 27.8991V45.1989H281.731V26.4371C281.731 21.6451 280.473 18.0308 277.955 15.5942ZM299.422 16.7516C300.559 15.1678 302.081 13.9698 303.99 13.1576C305.939 12.3454 308.173 11.9393 310.691 11.9393V20.7111C309.635 20.6299 308.924 20.5893 308.559 20.5893C305.838 20.5893 303.706 21.3609 302.163 22.904C300.62 24.4066 299.848 26.6808 299.848 29.7265V45.1989H290.345V12.4267H299.422V16.7516ZM335.198 47.2091L350 12.4267H340.863L331.604 34.6606L322.406 12.4267H312.598L326.791 45.4426L326.67 45.7472C326.02 47.2091 325.289 48.2447 324.477 48.8538C323.664 49.5036 322.609 49.8285 321.309 49.8285C320.375 49.8285 319.421 49.6457 318.446 49.2802C317.512 48.9147 316.68 48.4071 315.949 47.7574L312.476 54.5189C313.532 55.453 314.893 56.1839 316.558 56.7119C318.223 57.2398 319.908 57.5038 321.614 57.5038C324.741 57.5038 327.401 56.7322 329.594 55.189C331.827 53.6458 333.695 50.9859 335.198 47.2091ZM234.96 78.1438C235.366 77.7208 235.958 77.5093 236.736 77.5093C237.532 77.5093 238.192 77.7292 238.716 78.1692L239.325 76.824C239.004 76.5532 238.606 76.3502 238.132 76.2148C237.659 76.0625 237.168 75.9864 236.66 75.9864C235.374 75.9864 234.376 76.3417 233.665 77.0524C232.971 77.7631 232.625 78.7276 232.625 79.9459V81.5956H230.239V83.1185H232.625V94.9462H234.427V83.1185H238.488V81.5956H234.376V80.022C234.376 79.1929 234.57 78.5668 234.96 78.1438ZM135.48 81.5956H137.282V94.9462H135.48V81.5956ZM136.393 78.6768C136.021 78.6768 135.708 78.5499 135.454 78.2961C135.2 78.0423 135.074 77.7377 135.074 77.3824C135.074 77.0439 135.2 76.7478 135.454 76.494C135.708 76.2402 136.021 76.1133 136.393 76.1133C136.766 76.1133 137.079 76.2402 137.332 76.494C137.586 76.7309 137.713 77.0186 137.713 77.357C137.713 77.7292 137.586 78.0423 137.332 78.2961C137.079 78.5499 136.766 78.6768 136.393 78.6768ZM75.2402 95.0985C73.4805 95.0985 71.8899 94.7093 70.4685 93.9309C69.0641 93.1526 67.9558 92.0781 67.1436 90.7075C66.3483 89.32 65.9507 87.7718 65.9507 86.0627C65.9507 84.3537 66.3483 82.8139 67.1436 81.4434C67.9558 80.0558 69.0726 78.9729 70.4939 78.1946C71.9153 77.4162 73.5058 77.027 75.2656 77.027C76.5854 77.027 77.8037 77.247 78.9205 77.6869C80.0373 78.1269 80.9848 78.7699 81.7632 79.6159L80.5703 80.8088C79.1828 79.4044 77.4315 78.7022 75.3164 78.7022C73.9119 78.7022 72.6344 79.0237 71.4838 79.6667C70.3332 80.3097 69.4279 81.1895 68.768 82.3063C68.125 83.4231 67.8035 84.6752 67.8035 86.0627C67.8035 87.4503 68.125 88.7024 68.768 89.8192C69.4279 90.936 70.3332 91.8158 71.4838 92.4588C72.6344 93.1018 73.9119 93.4233 75.3164 93.4233C77.4484 93.4233 79.1997 92.7126 80.5703 91.2913L81.7632 92.4842C80.9848 93.3302 80.0288 93.9817 78.8951 94.4386C77.7784 94.8785 76.5601 95.0985 75.2402 95.0985ZM87.1123 84.2099C87.5353 83.3131 88.1614 82.6363 88.9905 82.1794C89.8366 81.7225 90.8772 81.4941 92.1124 81.4941V83.2454L91.6809 83.22C90.2765 83.22 89.1766 83.6515 88.3814 84.5145C87.5861 85.3775 87.1884 86.5873 87.1884 88.144V94.9462H85.3864V81.5956H87.1123V84.2099ZM95.7082 88.8293H106.876L106.901 88.2709C106.901 86.9511 106.622 85.7836 106.064 84.7683C105.505 83.7361 104.735 82.9324 103.754 82.3571C102.773 81.7818 101.664 81.4941 100.429 81.4941C99.1939 81.4941 98.0771 81.7818 97.0788 82.3571C96.0974 82.9324 95.319 83.7361 94.7437 84.7683C94.1853 85.8005 93.9062 86.968 93.9062 88.2709C93.9062 89.5738 94.2023 90.7414 94.7945 91.7735C95.3867 92.8057 96.2074 93.6179 97.2565 94.2101C98.3225 94.7854 99.5408 95.0731 100.911 95.0731C101.977 95.0731 102.95 94.887 103.83 94.5147C104.727 94.1424 105.472 93.601 106.064 92.8903L105.049 91.7228C104.541 92.2981 103.94 92.738 103.246 93.0426C102.553 93.3302 101.791 93.4741 100.962 93.4741C99.49 93.4741 98.2717 93.0511 97.3072 92.205C96.3428 91.342 95.8097 90.2168 95.7082 88.8293ZM97.1803 84.2861C98.0602 83.4569 99.1432 83.0424 100.429 83.0424C101.732 83.0424 102.815 83.4569 103.678 84.2861C104.558 85.0983 105.057 86.1643 105.175 87.4841H95.7082C95.8267 86.1643 96.3174 85.0983 97.1803 84.2861ZM114.868 81.4941C116.611 81.4941 117.947 81.9341 118.878 82.8139C119.809 83.6769 120.274 84.9629 120.274 86.6719V94.9462H118.548V92.8649C118.142 93.5587 117.541 94.1001 116.746 94.4893C115.968 94.8785 115.037 95.0731 113.954 95.0731C112.465 95.0731 111.28 94.7178 110.401 94.0071C109.521 93.2964 109.081 92.3573 109.081 91.1898C109.081 90.0561 109.487 89.1423 110.299 88.4486C111.128 87.7548 112.44 87.408 114.233 87.408H118.472V86.5958C118.472 85.4451 118.15 84.5737 117.507 83.9815C116.864 83.3723 115.925 83.0678 114.69 83.0678C113.844 83.0678 113.032 83.2116 112.253 83.4992C111.475 83.77 110.807 84.1507 110.248 84.6414L109.436 83.2962C110.113 82.7209 110.925 82.2809 111.873 81.9764C112.82 81.6549 113.819 81.4941 114.868 81.4941ZM114.233 93.6517C115.248 93.6517 116.12 93.4233 116.847 92.9664C117.575 92.4927 118.116 91.8158 118.472 90.9359V88.7532H114.284C112 88.7532 110.857 89.5484 110.857 91.139C110.857 91.9174 111.154 92.535 111.746 92.9918C112.338 93.4318 113.167 93.6517 114.233 93.6517ZM130.93 94.8447C131.438 94.6755 131.861 94.4386 132.199 94.134L131.565 92.8395C131.311 93.0595 131.006 93.2287 130.651 93.3472C130.312 93.4656 129.957 93.5248 129.585 93.5248C128.84 93.5248 128.265 93.3218 127.859 92.9157C127.47 92.4927 127.275 91.8835 127.275 91.0882V83.1185H131.336V81.5956H127.275V78.6768H125.473V81.5956H123.087V83.1185H125.473V91.1898C125.473 92.425 125.812 93.381 126.488 94.0578C127.165 94.7347 128.13 95.0731 129.382 95.0731C129.923 95.0731 130.439 94.9969 130.93 94.8447ZM145.722 94.9462H147.575L153.514 81.5956H151.738L146.687 92.9664L141.687 81.5956H139.809L145.722 94.9462ZM167.305 88.8293H156.137C156.239 90.2168 156.772 91.342 157.736 92.205C158.701 93.0511 159.919 93.4741 161.391 93.4741C162.22 93.4741 162.982 93.3302 163.676 93.0426C164.369 92.738 164.97 92.2981 165.478 91.7228L166.493 92.8903C165.901 93.601 165.156 94.1424 164.259 94.5147C163.38 94.887 162.407 95.0731 161.341 95.0731C159.97 95.0731 158.752 94.7854 157.686 94.2101C156.637 93.6179 155.816 92.8057 155.224 91.7735C154.631 90.7414 154.335 89.5738 154.335 88.2709C154.335 86.968 154.615 85.8005 155.173 84.7683C155.748 83.7361 156.527 82.9324 157.508 82.3571C158.506 81.7818 159.623 81.4941 160.858 81.4941C162.094 81.4941 163.202 81.7818 164.183 82.3571C165.165 82.9324 165.935 83.7361 166.493 84.7683C167.051 85.7836 167.331 86.9511 167.331 88.2709L167.305 88.8293ZM160.858 83.0424C159.572 83.0424 158.489 83.4569 157.61 84.2861C156.747 85.0983 156.256 86.1643 156.137 87.4841H165.605C165.486 86.1643 164.987 85.0983 164.107 84.2861C163.244 83.4569 162.161 83.0424 160.858 83.0424ZM190.002 78.8037C188.716 77.7208 186.939 77.1793 184.672 77.1793H178.022V94.9462H179.9V89.3369H184.672C186.939 89.3369 188.716 88.8039 190.002 87.7379C191.288 86.655 191.931 85.1659 191.931 83.2708C191.931 81.3757 191.288 79.8866 190.002 78.8037ZM188.657 86.545C187.726 87.3064 186.381 87.6871 184.621 87.6871H179.9V78.8037H184.621C186.381 78.8037 187.726 79.1929 188.657 79.9712C189.587 80.7327 190.053 81.8325 190.053 83.2708C190.053 84.6752 189.587 85.7666 188.657 86.545ZM200.994 95.0731C199.708 95.0731 198.549 94.7854 197.517 94.2101C196.485 93.6179 195.672 92.8057 195.08 91.7735C194.488 90.7414 194.192 89.5738 194.192 88.2709C194.192 86.968 194.488 85.8005 195.08 84.7683C195.672 83.7361 196.485 82.9324 197.517 82.3571C198.549 81.7818 199.708 81.4941 200.994 81.4941C202.28 81.4941 203.439 81.7818 204.471 82.3571C205.503 82.9324 206.307 83.7361 206.882 84.7683C207.475 85.8005 207.771 86.968 207.771 88.2709C207.771 89.5738 207.475 90.7414 206.882 91.7735C206.307 92.8057 205.503 93.6179 204.471 94.2101C203.439 94.7854 202.28 95.0731 200.994 95.0731ZM200.994 93.4741C201.942 93.4741 202.788 93.2626 203.532 92.8395C204.294 92.3996 204.886 91.782 205.309 90.9867C205.732 90.1914 205.943 89.2862 205.943 88.2709C205.943 87.2557 205.732 86.3504 205.309 85.5551C204.886 84.7598 204.294 84.1507 203.532 83.7277C202.788 83.2877 201.942 83.0678 200.994 83.0678C200.046 83.0678 199.192 83.2877 198.43 83.7277C197.686 84.1507 197.094 84.7598 196.654 85.5551C196.231 86.3504 196.019 87.2557 196.019 88.2709C196.019 89.2862 196.231 90.1914 196.654 90.9867C197.094 91.782 197.686 92.3996 198.43 92.8395C199.192 93.2626 200.046 93.4741 200.994 93.4741ZM215.054 82.1794C214.225 82.6363 213.599 83.3131 213.176 84.2099V81.5956H211.45V94.9462H213.252V88.144C213.252 86.5873 213.65 85.3775 214.445 84.5145C215.24 83.6515 216.34 83.22 217.744 83.22L218.176 83.2454V81.4941C216.941 81.4941 215.9 81.7225 215.054 82.1794ZM229.039 94.134C228.701 94.4386 228.278 94.6755 227.77 94.8447C227.28 94.9969 226.764 95.0731 226.222 95.0731C224.97 95.0731 224.006 94.7347 223.329 94.0578C222.652 93.381 222.313 92.425 222.313 91.1898V83.1185H219.928V81.5956H222.313V78.6768H224.116V81.5956H228.177V83.1185H224.116V91.0882C224.116 91.8835 224.31 92.4927 224.699 92.9157C225.105 93.3218 225.681 93.5248 226.425 93.5248C226.797 93.5248 227.153 93.4656 227.491 93.3472C227.847 93.2287 228.151 93.0595 228.405 92.8395L229.039 94.134ZM246.155 95.0731C244.869 95.0731 243.71 94.7854 242.678 94.2101C241.645 93.6179 240.833 92.8057 240.241 91.7735C239.649 90.7414 239.353 89.5738 239.353 88.2709C239.353 86.968 239.649 85.8005 240.241 84.7683C240.833 83.7361 241.645 82.9324 242.678 82.3571C243.71 81.7818 244.869 81.4941 246.155 81.4941C247.441 81.4941 248.6 81.7818 249.632 82.3571C250.664 82.9324 251.468 83.7361 252.043 84.7683C252.635 85.8005 252.932 86.968 252.932 88.2709C252.932 89.5738 252.635 90.7414 252.043 91.7735C251.468 92.8057 250.664 93.6179 249.632 94.2101C248.6 94.7854 247.441 95.0731 246.155 95.0731ZM246.155 93.4741C247.102 93.4741 247.948 93.2626 248.693 92.8395C249.454 92.3996 250.047 91.782 250.47 90.9867C250.893 90.1914 251.104 89.2862 251.104 88.2709C251.104 87.2557 250.893 86.3504 250.47 85.5551C250.047 84.7598 249.454 84.1507 248.693 83.7277C247.948 83.2877 247.102 83.0678 246.155 83.0678C245.207 83.0678 244.353 83.2877 243.591 83.7277C242.847 84.1507 242.255 84.7598 241.815 85.5551C241.392 86.3504 241.18 87.2557 241.18 88.2709C241.18 89.2862 241.392 90.1914 241.815 90.9867C242.255 91.782 242.847 92.3996 243.591 92.8395C244.353 93.2626 245.207 93.4741 246.155 93.4741ZM258.413 76.1133H256.611V94.9462H258.413V76.1133ZM263.427 81.5956H265.229V94.9462H263.427V81.5956ZM264.341 78.6768C263.968 78.6768 263.655 78.5499 263.402 78.2961C263.148 78.0423 263.021 77.7377 263.021 77.3824C263.021 77.0439 263.148 76.7478 263.402 76.494C263.655 76.2402 263.968 76.1133 264.341 76.1133C264.713 76.1133 265.026 76.2402 265.28 76.494C265.534 76.7309 265.66 77.0186 265.66 77.357C265.66 77.7292 265.534 78.0423 265.28 78.2961C265.026 78.5499 264.713 78.6768 264.341 78.6768ZM272.223 94.2101C273.255 94.7854 274.414 95.0731 275.7 95.0731C276.986 95.0731 278.145 94.7854 279.177 94.2101C280.21 93.6179 281.013 92.8057 281.589 91.7735C282.181 90.7414 282.477 89.5738 282.477 88.2709C282.477 86.968 282.181 85.8005 281.589 84.7683C281.013 83.7361 280.21 82.9324 279.177 82.3571C278.145 81.7818 276.986 81.4941 275.7 81.4941C274.414 81.4941 273.255 81.7818 272.223 82.3571C271.191 82.9324 270.379 83.7361 269.786 84.7683C269.194 85.8005 268.898 86.968 268.898 88.2709C268.898 89.5738 269.194 90.7414 269.786 91.7735C270.379 92.8057 271.191 93.6179 272.223 94.2101ZM278.238 92.8395C277.494 93.2626 276.648 93.4741 275.7 93.4741C274.753 93.4741 273.898 93.2626 273.137 92.8395C272.392 92.3996 271.8 91.782 271.36 90.9867C270.937 90.1914 270.725 89.2862 270.725 88.2709C270.725 87.2557 270.937 86.3504 271.36 85.5551C271.8 84.7598 272.392 84.1507 273.137 83.7277C273.898 83.2877 274.753 83.0678 275.7 83.0678C276.648 83.0678 277.494 83.2877 278.238 83.7277C279 84.1507 279.592 84.7598 280.015 85.5551C280.438 86.3504 280.65 87.2557 280.65 88.2709C280.65 89.2862 280.438 90.1914 280.015 90.9867C279.592 91.782 279 92.3996 278.238 92.8395Z" fill="black"/>
</svg>
