<svg width="320" height="150" viewBox="0 0 320 150" fill="none" xmlns="http://www.w3.org/2000/svg">
<path d="M140.779 67.2407V82.4707H55.6345V0.452881H117.618V15.6829H74.4965V33.4941H112.58V48.2592H74.4965V67.2407H140.779Z" fill="black"/>
<path d="M172.27 82.4731L158.44 63.1406L144.147 82.4755H124.225L148.483 50.7225L125.046 19.4303H145.554L158.912 37.8307L189.629 0L201.841 9.66066L168.634 50.248L193.007 82.4715L172.27 82.4731Z" fill="black"/>
<path d="M195.268 50.9542C195.268 31.972 209.913 18.4958 229.95 18.4958C249.986 18.4958 264.517 31.9728 264.517 50.9542C264.517 69.9357 249.964 82.664 229.923 82.664C209.883 82.664 195.268 69.9357 195.268 50.9542ZM246.008 50.9542C246.008 40.0527 239.091 33.4934 229.951 33.4934C220.81 33.4934 213.784 40.0527 213.784 50.9542C213.784 61.8557 220.816 68.4095 229.951 68.4095C239.085 68.4095 246.007 61.8501 246.007 50.9542H246.008Z" fill="black"/>
<path d="M7.81542 140.1C6.35654 140.1 4.89766 139.996 3.43879 139.788C1.97991 139.579 0.833645 139.336 0 139.058V136.714H6.77337C9.69112 136.714 11.7579 136.193 12.9736 135.151C14.2241 134.109 14.8493 132.459 14.8493 130.201C14.8493 128.916 14.5714 127.856 14.0157 127.023C13.4599 126.154 12.7652 125.46 11.9315 124.939C11.0979 124.418 9.93427 123.81 8.44066 123.115C6.63443 122.316 5.15818 121.534 4.01192 120.77C2.90039 120.006 1.94517 118.912 1.14626 117.488C0.382087 116.064 0 114.223 0 111.965C0 108.804 0.79891 106.459 2.39673 104.931C4.02928 103.368 6.53022 102.586 9.89953 102.586C11.3584 102.586 12.8173 102.691 14.2762 102.899C15.735 103.107 16.8813 103.351 17.715 103.628V105.973H10.9416C8.85748 105.973 7.29439 106.477 6.25234 107.484C5.21028 108.491 4.68925 109.985 4.68925 111.965C4.68925 113.354 4.9845 114.518 5.575 115.456C6.1655 116.359 6.89494 117.088 7.76332 117.644C8.66643 118.2 9.8648 118.825 11.3584 119.52C13.1646 120.388 14.5888 121.187 15.6308 121.917C16.7076 122.646 17.6281 123.688 18.3923 125.043C19.1565 126.363 19.5386 128.082 19.5386 130.201C19.5386 133.64 18.6354 136.158 16.8292 137.756C15.0577 139.319 12.0531 140.1 7.81542 140.1Z" fill="black"/>
<path d="M32.841 140.1C30.1664 140.1 28.1518 139.545 26.7971 138.433C25.4425 137.287 24.7651 135.238 24.7651 132.285V113.528H29.4544V132.285C29.4544 133.987 29.8886 135.203 30.7569 135.932C31.6253 136.627 32.8411 136.974 34.4041 136.974C35.0294 136.974 35.6893 136.87 36.384 136.662C37.0787 136.453 37.6345 136.21 38.0513 135.932V113.528H42.7406V139.579H38.8329L38.5724 138.016H38.3118C37.6519 138.676 36.8356 139.197 35.863 139.579C34.8904 139.927 33.8831 140.1 32.841 140.1Z" fill="black"/>
<path d="M49.4936 113.528H53.4013L53.6618 115.091H53.9223C54.5823 114.431 55.3986 113.927 56.3712 113.58C57.3438 113.198 58.3511 113.007 59.3931 113.007C62.2762 113.007 64.4297 114.014 65.8539 116.029C67.278 118.044 67.9901 121.552 67.9901 126.554C67.9901 131.556 67.278 135.064 65.8539 137.078C64.4297 139.093 62.2762 140.1 59.3931 140.1C57.6564 140.1 55.9196 139.666 54.1828 138.798V150H49.4936V113.528ZM57.83 136.974C59.671 136.974 61.0431 136.227 61.9462 134.734C62.8493 133.206 63.3008 130.479 63.3008 126.554C63.3008 122.629 62.8493 119.919 61.9462 118.426C61.0431 116.897 59.671 116.133 57.83 116.133C57.2048 116.133 56.5448 116.237 55.8501 116.446C55.1554 116.654 54.5997 116.897 54.1828 117.175V135.932C54.5997 136.21 55.1554 136.453 55.8501 136.662C56.5448 136.87 57.2048 136.974 57.83 136.974Z" fill="black"/>
<path d="M83.6128 140.1C80.9382 140.1 78.802 139.701 77.2042 138.902C75.6411 138.068 74.4948 136.679 73.7654 134.734C73.0359 132.754 72.6712 130.027 72.6712 126.554C72.6712 123.15 73.0012 120.458 73.6612 118.478C74.3559 116.498 75.3632 115.091 76.6831 114.257C78.0031 113.424 79.7051 113.007 81.7892 113.007C83.8733 113.007 85.5753 113.424 86.8953 114.257C88.2152 115.091 89.2052 116.498 89.8651 118.478C90.5598 120.458 90.9072 123.15 90.9072 126.554V128.117H77.3605C77.3605 130.375 77.6036 132.146 78.0899 133.431C78.5762 134.716 79.3404 135.637 80.3824 136.193C81.4592 136.714 82.8834 136.974 84.6549 136.974H89.8651V139.058C89.0315 139.336 88.0242 139.579 86.8432 139.788C85.6622 139.996 84.5854 140.1 83.6128 140.1ZM86.2179 124.991C86.2179 121.726 85.8011 119.398 84.9675 118.009C84.1686 116.585 83.1091 115.873 81.7892 115.873C80.4693 115.873 79.3925 116.585 78.5588 118.009C77.7599 119.398 77.3605 121.726 77.3605 124.991H86.2179Z" fill="black"/>
<path d="M96.6609 113.528H100.621L100.881 115.612H101.142C102.809 114.223 104.963 113.528 107.602 113.528H110.208V117.436H104.997C103.504 117.436 102.288 117.783 101.35 118.478V139.579H96.6609V113.528Z" fill="black"/>
<path d="M122.722 140.1C120.291 140.1 118.346 139.684 116.887 138.85C115.428 138.016 114.334 136.627 113.604 134.682C112.91 132.702 112.562 129.993 112.562 126.554C112.562 123.115 112.91 120.423 113.604 118.478C114.299 116.498 115.341 115.091 116.731 114.257C118.12 113.424 119.944 113.007 122.201 113.007C123.174 113.007 124.251 113.111 125.432 113.32C126.613 113.528 127.62 113.771 128.454 114.049V116.133H123.243C121.854 116.133 120.725 116.446 119.857 117.071C119.023 117.662 118.381 118.721 117.929 120.249C117.477 121.743 117.252 123.844 117.252 126.554C117.252 129.298 117.477 131.434 117.929 132.962C118.415 134.456 119.11 135.498 120.013 136.089C120.951 136.679 122.201 136.974 123.765 136.974H128.975V139.058C128.141 139.336 127.134 139.579 125.953 139.788C124.772 139.996 123.695 140.1 122.722 140.1Z" fill="black"/>
<path d="M139.916 140.1C137.346 140.1 135.401 139.51 134.081 138.329C132.761 137.113 132.101 134.925 132.101 131.764C132.101 128.707 132.761 126.606 134.081 125.46C135.401 124.279 137.346 123.688 139.916 123.688C141.306 123.688 143.043 123.862 145.127 124.209V121.864C145.127 119.641 144.658 118.13 143.72 117.332C142.817 116.533 141.375 116.133 139.395 116.133H134.185V114.049C135.019 113.771 136.026 113.528 137.207 113.32C138.388 113.111 139.465 113.007 140.437 113.007C142.66 113.007 144.432 113.25 145.752 113.736C147.107 114.223 148.114 115.108 148.774 116.394C149.469 117.644 149.816 119.468 149.816 121.864V139.579H145.908L145.648 138.016H145.387C144.727 138.676 143.911 139.197 142.938 139.579C141.966 139.927 140.958 140.1 139.916 140.1ZM141.479 136.974C142.105 136.974 142.765 136.87 143.459 136.662C144.154 136.453 144.71 136.21 145.127 135.932V126.814H141.479C140.021 126.814 138.874 127.196 138.041 127.96C137.207 128.69 136.79 129.958 136.79 131.764C136.79 133.709 137.207 135.064 138.041 135.828C138.874 136.592 140.021 136.974 141.479 136.974Z" fill="black"/>
<path d="M156.599 113.528H160.559L160.82 115.612H161.08C162.748 114.223 164.901 113.528 167.541 113.528H170.146V117.436H164.936C163.442 117.436 162.227 117.783 161.289 118.478V139.579H156.599V113.528Z" fill="black"/>
<path d="M187.078 113.528H191.037L191.298 115.612H191.558C193.226 114.223 195.379 113.528 198.019 113.528H200.624V117.436H195.414C193.92 117.436 192.705 117.783 191.767 118.478V139.579H187.078V113.528Z" fill="black"/>
<path d="M213.921 140.1C211.246 140.1 209.11 139.701 207.512 138.902C205.949 138.068 204.803 136.679 204.073 134.734C203.344 132.754 202.979 130.027 202.979 126.554C202.979 123.15 203.309 120.458 203.969 118.478C204.664 116.498 205.671 115.091 206.991 114.257C208.311 113.424 210.013 113.007 212.097 113.007C214.181 113.007 215.883 113.424 217.203 114.257C218.523 115.091 219.513 116.498 220.173 118.478C220.868 120.458 221.215 123.15 221.215 126.554V128.117H207.668C207.668 130.375 207.912 132.146 208.398 133.431C208.884 134.716 209.648 135.637 210.69 136.193C211.767 136.714 213.191 136.974 214.963 136.974H220.173V139.058C219.339 139.336 218.332 139.579 217.151 139.788C215.97 139.996 214.893 140.1 213.921 140.1ZM216.526 124.991C216.526 121.726 216.109 119.398 215.275 118.009C214.476 116.585 213.417 115.873 212.097 115.873C210.777 115.873 209.7 116.585 208.867 118.009C208.068 119.398 207.668 121.726 207.668 124.991H216.526Z" fill="black"/>
<path d="M226.969 113.528H230.877L231.137 115.091H231.398C232.058 114.431 232.874 113.927 233.846 113.58C234.819 113.198 235.826 113.007 236.868 113.007C239.543 113.007 241.558 113.58 242.912 114.726C244.267 115.838 244.944 117.87 244.944 120.822V139.579H240.255V120.822C240.255 119.12 239.821 117.922 238.952 117.227C238.084 116.498 236.868 116.133 235.305 116.133C234.68 116.133 234.02 116.237 233.325 116.446C232.631 116.654 232.075 116.897 231.658 117.175V139.579H226.969V113.528Z" fill="black"/>
<path d="M259.773 140.1C257.446 140.1 255.64 139.475 254.355 138.225C253.104 136.94 252.479 134.612 252.479 131.243V117.436H249.353V114.049H252.479V107.797H257.168V114.049H264.462V116.394C263.629 116.672 262.621 116.915 261.441 117.123C260.26 117.332 259.183 117.436 258.21 117.436H257.168V131.243C257.168 133.362 257.533 134.855 258.262 135.724C258.992 136.557 259.843 136.974 260.815 136.974H265.505V139.058C264.845 139.336 263.924 139.579 262.743 139.788C261.562 139.996 260.572 140.1 259.773 140.1Z" fill="black"/>
<path d="M275.923 140.1C273.353 140.1 271.407 139.51 270.088 138.329C268.768 137.113 268.108 134.925 268.108 131.764C268.108 128.707 268.768 126.606 270.088 125.46C271.407 124.279 273.353 123.688 275.923 123.688C277.312 123.688 279.049 123.862 281.133 124.209V121.864C281.133 119.641 280.664 118.13 279.727 117.332C278.823 116.533 277.382 116.133 275.402 116.133H270.192V114.049C271.025 113.771 272.033 113.528 273.214 113.32C274.395 113.111 275.471 113.007 276.444 113.007C278.667 113.007 280.439 113.25 281.759 113.736C283.113 114.223 284.121 115.108 284.781 116.394C285.475 117.644 285.823 119.468 285.823 121.864V139.579H281.915L281.654 138.016H281.394C280.734 138.676 279.918 139.197 278.945 139.579C277.972 139.927 276.965 140.1 275.923 140.1ZM277.486 136.974C278.111 136.974 278.771 136.87 279.466 136.662C280.161 136.453 280.716 136.21 281.133 135.932V126.814H277.486C276.027 126.814 274.881 127.196 274.047 127.96C273.214 128.69 272.797 129.958 272.797 131.764C272.797 133.709 273.214 135.064 274.047 135.828C274.881 136.592 276.027 136.974 277.486 136.974Z" fill="black"/>
<path d="M292.867 139.579V103.107H297.556V139.579H292.867Z" fill="black"/>
<path d="M309.564 140.1C308.591 140.1 307.515 139.996 306.334 139.788C305.153 139.579 304.145 139.336 303.312 139.058V136.974H308.522C310.919 136.974 312.638 136.662 313.68 136.036C314.757 135.411 315.295 134.334 315.295 132.806C315.295 131.556 314.861 130.6 313.993 129.94C313.159 129.246 311.856 128.551 310.085 127.856C308.557 127.196 307.324 126.606 306.386 126.085C305.483 125.529 304.701 124.747 304.041 123.74C303.381 122.698 303.051 121.378 303.051 119.78C303.051 117.245 303.798 115.491 305.292 114.518C306.785 113.511 309.165 113.007 312.43 113.007C313.402 113.007 314.479 113.111 315.66 113.32C316.841 113.528 317.848 113.771 318.682 114.049V116.133H313.472C311.596 116.133 310.172 116.428 309.199 117.019C308.227 117.575 307.74 118.495 307.74 119.78C307.74 121.031 308.157 122.003 308.991 122.698C309.859 123.358 311.179 124.035 312.951 124.73C314.479 125.39 315.695 125.998 316.598 126.554C317.536 127.075 318.335 127.856 318.995 128.898C319.655 129.906 319.985 131.208 319.985 132.806C319.985 134.716 319.62 136.193 318.89 137.235C318.196 138.277 317.102 139.024 315.608 139.475C314.114 139.892 312.1 140.1 309.564 140.1Z" fill="black"/>
</svg>
