<svg width="46" height="45" viewBox="0 0 46 45" fill="none" xmlns="http://www.w3.org/2000/svg">
<path d="M23 0C10.2983 0 0 10.3291 0 23.0688C0 33.2628 6.5895 41.9079 15.7297 44.9577C16.8794 45.1689 17.2991 44.4564 17.2991 43.8481C17.2991 43.299 17.2781 41.4799 17.2668 39.5537C10.8711 40.9477 9.51921 36.8335 9.51921 36.8335C8.472 34.1695 6.96568 33.4599 6.96568 33.4599C4.87542 32.0294 7.12425 32.0575 7.12425 32.0575C9.4335 32.218 10.6493 34.4342 10.6493 34.4342C12.7017 37.9599 16.0343 36.9405 17.3426 36.3491C17.5517 34.8623 18.1469 33.8429 18.8026 33.2684C13.6969 32.6855 8.326 30.7058 8.326 21.8663C8.326 19.346 9.22304 17.2903 10.6914 15.6753C10.457 15.0896 9.66521 12.7424 10.9188 9.56742C10.9188 9.56742 12.8477 8.9479 17.2443 11.9329C19.0777 11.419 21.0445 11.1655 23 11.1571C24.9541 11.1655 26.9222 11.4218 28.7584 11.9357C33.1467 8.9479 35.0784 9.57022 35.0784 9.57022C36.3362 12.7481 35.5444 15.0924 35.3086 15.6753C36.7826 17.2903 37.6726 19.346 37.6726 21.8663C37.6726 30.7284 32.2932 32.6798 27.1693 33.2515C27.9976 33.9668 28.7304 35.3691 28.7304 37.5206C28.7304 40.6041 28.6995 43.0907 28.6995 43.851C28.6995 44.4649 29.1178 45.1829 30.283 44.9577C39.4162 41.9023 46 33.2571 46 23.0688C46 10.3291 35.7017 0 23 0Z" fill="white"/>
</svg>
