<svg width="350" height="117" viewBox="0 0 350 117" fill="none" xmlns="http://www.w3.org/2000/svg">
<path d="M14.9037 4.14902C21.3456 4.14902 26.1679 5.76859 29.3707 9.00774C32.5734 12.2105 34.1748 16.8872 34.1748 23.038C34.1748 27.005 33.3923 30.4807 31.8273 33.4651C30.2624 36.4495 27.9877 38.7606 25.0033 40.3983C22.0553 41.9997 18.525 42.8004 14.4124 42.8004L11.246 42.7458C9.20791 42.673 7.71572 42.6366 6.76945 42.6366C3.78507 42.6366 1.52859 42.6912 0 42.8004V41.7085C1.31022 41.6358 2.25648 41.4902 2.8388 41.2718C3.45752 41.0534 3.87606 40.6349 4.09443 40.0162C4.3128 39.3975 4.42198 38.3966 4.42198 37.0136V9.9358C4.42198 8.5528 4.3128 7.55194 4.09443 6.93323C3.87606 6.31451 3.45752 5.89597 2.8388 5.6776C2.25648 5.45923 1.31022 5.31365 0 5.24086V4.14902C1.27382 4.2582 3.03897 4.31279 5.29546 4.31279L9.93581 4.2582C12.4107 4.18541 14.0666 4.14902 14.9037 4.14902ZM13.5389 5.13168C12.4107 5.13168 11.5554 5.25906 10.9731 5.51383C10.4271 5.76859 10.045 6.22352 9.82662 6.87863C9.60825 7.53374 9.49907 8.51641 9.49907 9.82662V37.1228C9.49907 38.433 9.60825 39.4157 9.82662 40.0708C10.045 40.7259 10.4271 41.1808 10.9731 41.4356C11.5554 41.6903 12.4289 41.8177 13.5935 41.8177C17.4514 41.8177 20.4903 41.1262 22.7104 39.7432C24.9305 38.3238 26.4773 36.2675 27.3508 33.5743C28.2606 30.8811 28.7156 27.4417 28.7156 23.2563C28.7156 19.0709 28.2242 15.668 27.2416 13.0476C26.2589 10.3907 24.6575 8.40722 22.4375 7.097C20.2538 5.78679 17.2876 5.13168 13.5389 5.13168Z" fill="black"/>
<path d="M62.4349 36.2493C61.7798 38.251 60.5423 39.9798 58.7226 41.4356C56.9392 42.855 54.7738 43.5647 52.2261 43.5647C49.6421 43.5647 47.4038 42.9824 45.5112 41.8177C43.6187 40.6167 42.1629 38.9607 41.1439 36.8498C40.1612 34.7025 39.6699 32.2277 39.6699 29.4253C39.6699 26.2589 40.1794 23.5111 41.1985 21.1818C42.2175 18.8526 43.6551 17.0692 45.5112 15.8318C47.3674 14.558 49.5329 13.921 52.0077 13.921C55.2833 13.921 57.7945 14.9219 59.5415 16.9236C61.3248 18.8889 62.2165 21.8915 62.2165 25.9314H45.1291C45.0199 26.9504 44.9653 28.1151 44.9653 29.4253C44.9653 31.8273 45.3475 33.92 46.1118 35.7034C46.9125 37.4867 47.9497 38.8697 49.2235 39.8524C50.5337 40.7987 51.8986 41.2718 53.318 41.2718C55.0649 41.2718 56.6117 40.8533 57.9583 40.0162C59.3049 39.1791 60.4332 37.7779 61.343 35.8126L62.4349 36.2493ZM51.7894 14.9583C50.0788 14.9583 48.6048 15.7954 47.3674 17.4695C46.13 19.1437 45.3657 21.6186 45.0745 24.8941H56.9756C57.0484 22.0553 56.6299 19.6896 55.72 17.7971C54.8465 15.9046 53.5363 14.9583 51.7894 14.9583Z" fill="black"/>
<path d="M114.946 5.24086C113.672 5.31365 112.726 5.51382 112.108 5.84138C111.489 6.13254 111.07 6.64207 110.852 7.36996C110.634 8.06147 110.524 9.09872 110.524 10.4817V43.0734H109.269L86.3399 7.64293V36.4677C86.3399 37.8871 86.4491 38.9425 86.6675 39.634C86.9222 40.3255 87.3954 40.8351 88.0869 41.1626C88.7784 41.4538 89.852 41.6358 91.3078 41.7085V42.8004C89.9976 42.6912 88.1415 42.6366 85.7394 42.6366C83.5557 42.6366 81.8633 42.6912 80.6623 42.8004V41.7085C81.9361 41.6358 82.8824 41.4538 83.5011 41.1626C84.1198 40.8351 84.5384 40.3255 84.7567 39.634C84.9751 38.9061 85.0843 37.8507 85.0843 36.4677V9.9358C85.0843 8.5528 84.9751 7.55194 84.7567 6.93323C84.5384 6.31451 84.1198 5.89597 83.5011 5.6776C82.9188 5.45923 81.9725 5.31365 80.6623 5.24086V4.14902C81.8633 4.2582 83.5557 4.31279 85.7394 4.31279C87.3772 4.31279 88.7966 4.2582 89.9976 4.14902L109.269 33.8472V10.4817C109.269 9.06233 109.141 8.00688 108.887 7.31537C108.668 6.62387 108.213 6.13254 107.522 5.84138C106.83 5.51382 105.757 5.31365 104.301 5.24086V4.14902C105.611 4.2582 107.467 4.31279 109.869 4.31279C112.053 4.31279 113.745 4.2582 114.946 4.14902V5.24086Z" fill="black"/>
<path d="M130.913 13.921C134.626 13.921 137.61 15.1585 139.866 17.6333C142.159 20.0718 143.306 23.7841 143.306 28.7702C143.306 33.7563 142.159 37.4685 139.866 39.907C137.61 42.3455 134.626 43.5647 130.913 43.5647C127.201 43.5647 124.198 42.3455 121.906 39.907C119.649 37.4685 118.521 33.7563 118.521 28.7702C118.521 23.7841 119.649 20.0718 121.906 17.6333C124.198 15.1585 127.201 13.921 130.913 13.921ZM130.913 15.0129C128.73 15.0129 127.001 16.1411 125.727 18.3976C124.453 20.6177 123.816 24.0752 123.816 28.7702C123.816 33.4651 124.453 36.9226 125.727 39.1427C127.001 41.3628 128.73 42.4728 130.913 42.4728C133.097 42.4728 134.826 41.3628 136.1 39.1427C137.373 36.9226 138.01 33.4651 138.01 28.7702C138.01 24.0752 137.373 20.6177 136.1 18.3976C134.826 16.1411 133.097 15.0129 130.913 15.0129Z" fill="black"/>
<path d="M160.822 13.921C164.534 13.921 167.518 15.1585 169.775 17.6333C172.068 20.0718 173.214 23.7841 173.214 28.7702C173.214 33.7563 172.068 37.4685 169.775 39.907C167.518 42.3455 164.534 43.5647 160.822 43.5647C157.109 43.5647 154.107 42.3455 151.814 39.907C149.558 37.4685 148.429 33.7563 148.429 28.7702C148.429 23.7841 149.558 20.0718 151.814 17.6333C154.107 15.1585 157.109 13.921 160.822 13.921ZM160.822 15.0129C158.638 15.0129 156.909 16.1411 155.635 18.3976C154.362 20.6177 153.725 24.0752 153.725 28.7702C153.725 33.4651 154.362 36.9226 155.635 39.1427C156.909 41.3628 158.638 42.4728 160.822 42.4728C163.005 42.4728 164.734 41.3628 166.008 39.1427C167.282 36.9226 167.919 33.4651 167.919 28.7702C167.919 24.0752 167.282 20.6177 166.008 18.3976C164.734 16.1411 163.005 15.0129 160.822 15.0129Z" fill="black"/>
<path d="M194.333 13.921C195.789 13.921 196.972 14.3396 197.882 15.1767C198.828 16.0138 199.301 17.0328 199.301 18.2338C199.301 19.1801 199.01 19.999 198.428 20.6905C197.882 21.3456 197.136 21.6732 196.19 21.6732C195.389 21.6732 194.697 21.4184 194.115 20.9089C193.569 20.3993 193.296 19.7078 193.296 18.8344C193.296 17.6333 193.915 16.6507 195.152 15.8864C194.897 15.5224 194.515 15.3404 194.006 15.3404C192.586 15.3404 191.294 15.9046 190.13 17.0328C188.965 18.1247 188.055 19.4713 187.4 21.0726C186.745 22.674 186.417 24.1844 186.417 25.6038V37.1774C186.417 38.8515 186.891 40.0162 187.837 40.6713C188.82 41.3264 190.275 41.654 192.204 41.654V42.8004L190.894 42.7458C187.182 42.6366 184.816 42.582 183.797 42.582C182.851 42.582 180.703 42.6548 177.355 42.8004V41.654C178.884 41.654 179.957 41.381 180.576 40.8351C181.195 40.2528 181.504 39.2155 181.504 37.7233V20.6359C181.504 18.9617 181.195 17.7425 180.576 16.9782C179.957 16.2139 178.884 15.8318 177.355 15.8318V14.6853C178.52 14.7945 179.648 14.8491 180.74 14.8491C183.033 14.8491 184.925 14.5944 186.417 14.0848V20.9089C187.073 19.0891 188.11 17.4695 189.529 16.0501C190.985 14.6307 192.586 13.921 194.333 13.921Z" fill="black"/>
<path d="M225.439 36.8498C225.439 38.524 225.748 39.7432 226.367 40.5075C226.986 41.2718 228.059 41.654 229.588 41.654V42.8004C228.46 42.6912 227.332 42.6366 226.203 42.6366C223.91 42.6366 222.018 42.8914 220.526 43.4009V38.5422C219.871 40.18 218.888 41.4356 217.578 42.3091C216.268 43.1461 214.666 43.5647 212.774 43.5647C209.28 43.5647 206.532 42.3091 204.53 39.7978C202.565 37.2866 201.6 33.6107 201.637 28.7702C201.637 25.6038 202.183 22.9106 203.275 20.6905C204.403 18.434 205.895 16.7416 207.751 15.6134C209.644 14.4852 211.718 13.921 213.975 13.921C215.358 13.921 216.613 14.194 217.742 14.7399C218.906 15.2495 219.834 16.0501 220.526 17.142V6.55108C220.526 4.87692 220.216 3.65769 219.598 2.89339C218.979 2.1291 217.905 1.74695 216.377 1.74695V0.600514C217.541 0.709699 218.67 0.764292 219.761 0.764292C222.054 0.764292 223.947 0.509528 225.439 0V36.8498ZM214.357 41.9269C215.776 41.9269 217.05 41.381 218.178 40.2891C219.307 39.1973 220.089 37.6505 220.526 35.6488V19.3803C219.543 16.5779 217.505 15.1767 214.411 15.1767C212.155 15.1767 210.335 16.3413 208.952 18.6706C207.569 20.9635 206.896 24.33 206.932 28.7702C206.896 33.1376 207.515 36.4313 208.788 38.6514C210.062 40.8351 211.918 41.9269 214.357 41.9269Z" fill="black"/>
<path d="M240.892 20.4721C241.802 18.1792 243.057 16.5233 244.659 15.5042C246.296 14.4488 248.134 13.921 250.172 13.921C252.72 13.921 254.649 14.6125 255.959 15.9956C256.651 16.7235 257.142 17.6333 257.433 18.7252C257.724 19.817 257.87 21.291 257.87 23.1472V37.7233C257.87 39.2155 258.179 40.2528 258.798 40.8351C259.417 41.381 260.49 41.654 262.019 41.654V42.8004C258.671 42.6548 256.487 42.582 255.468 42.582C254.449 42.582 252.411 42.6548 249.354 42.8004V41.654C250.7 41.654 251.628 41.381 252.138 40.8351C252.684 40.2528 252.957 39.2155 252.957 37.7233V21.9461C252.957 19.908 252.665 18.3612 252.083 17.3058C251.501 16.2139 250.318 15.668 248.535 15.668C247.042 15.668 245.714 16.0865 244.549 16.9236C243.421 17.7607 242.529 18.9435 241.874 20.4721C241.219 21.9643 240.892 23.6567 240.892 25.5492V37.7233C240.892 39.2155 241.146 40.2528 241.656 40.8351C242.202 41.381 243.148 41.654 244.495 41.654V42.8004C241.438 42.6548 239.399 42.582 238.38 42.582C237.361 42.582 235.178 42.6548 231.829 42.8004V41.654C233.358 41.654 234.432 41.381 235.05 40.8351C235.669 40.2528 235.978 39.2155 235.978 37.7233V6.60567C235.978 4.93151 235.669 3.71228 235.05 2.94799C234.432 2.18369 233.358 1.80155 231.829 1.80155V0.655109C232.994 0.764293 234.122 0.818884 235.214 0.818884C237.507 0.818884 239.399 0.56412 240.892 0.0545915V20.4721Z" fill="black"/>
<path d="M277.79 13.921C281.502 13.921 284.487 15.1585 286.743 17.6333C289.036 20.0718 290.183 23.7841 290.183 28.7702C290.183 33.7563 289.036 37.4685 286.743 39.907C284.487 42.3455 281.502 43.5647 277.79 43.5647C274.078 43.5647 271.075 42.3455 268.782 39.907C266.526 37.4685 265.398 33.7563 265.398 28.7702C265.398 23.7841 266.526 20.0718 268.782 17.6333C271.075 15.1585 274.078 13.921 277.79 13.921ZM277.79 15.0129C275.606 15.0129 273.878 16.1411 272.604 18.3976C271.33 20.6177 270.693 24.0752 270.693 28.7702C270.693 33.4651 271.33 36.9226 272.604 39.1427C273.878 41.3628 275.606 42.4728 277.79 42.4728C279.974 42.4728 281.703 41.3628 282.976 39.1427C284.25 36.9226 284.887 33.4651 284.887 28.7702C284.887 24.0752 284.25 20.6177 282.976 18.3976C281.703 16.1411 279.974 15.0129 277.79 15.0129Z" fill="black"/>
<path d="M318.017 36.2493C317.361 38.251 316.124 39.9798 314.304 41.4356C312.521 42.855 310.355 43.5647 307.808 43.5647C305.224 43.5647 302.986 42.9824 301.093 41.8177C299.2 40.6167 297.745 38.9607 296.726 36.8498C295.743 34.7025 295.252 32.2277 295.252 29.4253C295.252 26.2589 295.761 23.5111 296.78 21.1818C297.799 18.8526 299.237 17.0692 301.093 15.8318C302.949 14.558 305.115 13.921 307.589 13.921C310.865 13.921 313.376 14.9219 315.123 16.9236C316.907 18.8889 317.798 21.8915 317.798 25.9314H300.711C300.602 26.9504 300.547 28.1151 300.547 29.4253C300.547 31.8273 300.929 33.92 301.693 35.7034C302.494 37.4867 303.531 38.8697 304.805 39.8524C306.115 40.7987 307.48 41.2718 308.9 41.2718C310.647 41.2718 312.193 40.8533 313.54 40.0162C314.887 39.1791 316.015 37.7779 316.925 35.8126L318.017 36.2493ZM307.371 14.9583C305.661 14.9583 304.187 15.7954 302.949 17.4695C301.712 19.1437 300.947 21.6186 300.656 24.8941H312.557C312.63 22.0553 312.212 19.6896 311.302 17.7971C310.428 15.9046 309.118 14.9583 307.371 14.9583Z" fill="black"/>
<path d="M346.179 38.8152C346.87 39.725 347.489 40.3983 348.035 40.8351C348.581 41.2718 349.236 41.5448 350 41.654V42.8004C347.816 42.6548 346.342 42.582 345.578 42.582C344.595 42.582 342.575 42.6548 339.518 42.8004V41.654C340.028 41.654 340.428 41.563 340.719 41.381C341.047 41.1626 341.211 40.9079 341.211 40.6167C341.211 40.3255 341.101 40.0526 340.883 39.7978L334.605 30.6263C333.986 29.7164 333.386 29.1159 332.803 28.8248C332.258 28.4972 331.493 28.297 330.511 28.2242V37.7233C330.511 39.2155 330.765 40.2528 331.275 40.8351C331.821 41.381 332.767 41.654 334.114 41.654V42.8004C331.056 42.6548 329.037 42.582 328.054 42.582C326.998 42.582 324.797 42.6548 321.448 42.8004V41.654C322.977 41.654 324.05 41.381 324.669 40.8351C325.288 40.2528 325.597 39.2155 325.597 37.7233V6.55108C325.597 4.87692 325.288 3.65769 324.669 2.89339C324.05 2.1291 322.977 1.74695 321.448 1.74695V0.600514C322.613 0.709699 323.741 0.764292 324.833 0.764292C327.126 0.764292 329.018 0.509528 330.511 0V27.0778C331.566 26.9322 332.44 26.6957 333.131 26.3681C333.859 26.0041 334.55 25.4946 335.206 24.8395L339.245 20.6359C340.41 19.4349 340.992 18.434 340.992 17.6333C340.992 17.0146 340.61 16.5597 339.846 16.2685C339.118 15.941 338.154 15.7772 336.952 15.7772V14.6853C339.5 14.8309 341.556 14.9037 343.121 14.9037C344.832 14.9037 346.415 14.8309 347.871 14.6853V15.7772C346.088 15.9228 344.45 16.778 342.958 18.343L336.297 25.3308L346.179 38.8152Z" fill="black"/>
<path d="M146.672 78.3946C145.361 78.4674 144.397 78.613 143.778 78.8313C143.196 79.0497 142.796 79.4682 142.577 80.087C142.359 80.7057 142.25 81.7065 142.25 83.0895V110.167C142.25 111.55 142.359 112.551 142.577 113.17C142.796 113.789 143.196 114.207 143.778 114.426C144.397 114.644 145.361 114.789 146.672 114.862V115.954C145.143 115.845 142.814 115.79 139.684 115.79C136.736 115.79 134.425 115.845 132.751 115.954V114.862C134.061 114.789 135.007 114.644 135.589 114.426C136.208 114.207 136.627 113.789 136.845 113.17C137.063 112.551 137.173 111.55 137.173 110.167V97.0652H119.43V110.167C119.43 111.55 119.539 112.551 119.758 113.17C119.976 113.789 120.376 114.207 120.959 114.426C121.577 114.644 122.542 114.789 123.852 114.862V115.954C122.178 115.845 119.867 115.79 116.919 115.79C113.789 115.79 111.46 115.845 109.931 115.954V114.862C111.241 114.789 112.188 114.644 112.77 114.426C113.389 114.207 113.807 113.789 114.025 113.17C114.244 112.551 114.353 111.55 114.353 110.167V83.0895C114.353 81.7065 114.244 80.7057 114.025 80.087C113.807 79.4682 113.389 79.0497 112.77 78.8313C112.188 78.613 111.241 78.4674 109.931 78.3946V77.3027C111.46 77.4119 113.789 77.4665 116.919 77.4665C119.83 77.4665 122.142 77.4119 123.852 77.3027V78.3946C122.542 78.4674 121.577 78.613 120.959 78.8313C120.376 79.0497 119.976 79.4682 119.758 80.087C119.539 80.7057 119.43 81.7065 119.43 83.0895V95.9733H137.173V83.0895C137.173 81.7065 137.063 80.7057 136.845 80.087C136.627 79.4682 136.208 79.0497 135.589 78.8313C135.007 78.613 134.061 78.4674 132.751 78.3946V77.3027C134.425 77.4119 136.736 77.4665 139.684 77.4665C142.814 77.4665 145.143 77.4119 146.672 77.3027V78.3946Z" fill="black"/>
<path d="M162.954 87.0748C166.667 87.0748 169.651 88.3122 171.907 90.7871C174.2 93.2255 175.347 96.9378 175.347 101.924C175.347 106.91 174.2 110.622 171.907 113.061C169.651 115.499 166.667 116.718 162.954 116.718C159.242 116.718 156.239 115.499 153.947 113.061C151.69 110.622 150.562 106.91 150.562 101.924C150.562 96.9378 151.69 93.2255 153.947 90.7871C156.239 88.3122 159.242 87.0748 162.954 87.0748ZM162.954 88.1666C160.771 88.1666 159.042 89.2949 157.768 91.5514C156.494 93.7714 155.857 97.229 155.857 101.924C155.857 106.619 156.494 110.076 157.768 112.296C159.042 114.517 160.771 115.627 162.954 115.627C165.138 115.627 166.867 114.517 168.141 112.296C169.414 110.076 170.051 106.619 170.051 101.924C170.051 97.229 169.414 93.7714 168.141 91.5514C166.867 89.2949 165.138 88.1666 162.954 88.1666Z" fill="black"/>
<path d="M188.277 87.8937H196.357V88.9855H188.277V110.113C188.277 111.751 188.568 112.933 189.151 113.661C189.769 114.389 190.643 114.753 191.771 114.753C192.899 114.753 193.864 114.298 194.664 113.388C195.465 112.478 196.138 110.986 196.684 108.912L197.776 109.185C196.866 114.207 194.501 116.718 190.679 116.718C189.442 116.718 188.423 116.573 187.622 116.282C186.821 115.991 186.112 115.536 185.493 114.917C184.692 114.116 184.128 113.134 183.8 111.969C183.509 110.804 183.364 109.239 183.364 107.274V88.9855H178.123V87.8937H183.364V79.541C185.402 79.4682 187.04 79.2135 188.277 78.7767V87.8937Z" fill="black"/>
<path d="M222.48 109.403C221.825 111.405 220.587 113.134 218.768 114.589C216.984 116.009 214.819 116.718 212.271 116.718C209.687 116.718 207.449 116.136 205.556 114.971C203.664 113.77 202.208 112.114 201.189 110.004C200.206 107.856 199.715 105.381 199.715 102.579C199.715 99.4126 200.225 96.6648 201.244 94.3356C202.263 92.0063 203.7 90.2229 205.556 88.9855C207.412 87.7117 209.578 87.0748 212.053 87.0748C215.328 87.0748 217.84 88.0756 219.587 90.0774C221.37 92.0427 222.262 95.0453 222.262 99.0851H205.174C205.065 100.104 205.01 101.269 205.01 102.579C205.01 104.981 205.393 107.074 206.157 108.857C206.958 110.64 207.995 112.023 209.269 113.006C210.579 113.952 211.944 114.426 213.363 114.426C215.11 114.426 216.657 114.007 218.003 113.17C219.35 112.333 220.478 110.932 221.388 108.966L222.48 109.403ZM211.834 88.112C210.124 88.112 208.65 88.9491 207.413 90.6233C206.175 92.2974 205.411 94.7723 205.12 98.0478H217.021C217.094 95.209 216.675 92.8434 215.765 90.9508C214.892 89.0583 213.581 88.112 211.834 88.112Z" fill="black"/>
<path d="M235.083 110.877C235.083 112.369 235.393 113.406 236.011 113.989C236.63 114.535 237.704 114.808 239.232 114.808V115.954C235.884 115.809 233.682 115.736 232.626 115.736C231.571 115.736 229.369 115.809 226.021 115.954V114.808C227.549 114.808 228.623 114.535 229.242 113.989C229.86 113.406 230.17 112.369 230.17 110.877V79.7048C230.17 78.0306 229.86 76.8114 229.242 76.0471C228.623 75.2828 227.549 74.9007 226.021 74.9007V73.7542C227.149 73.8634 228.277 73.918 229.406 73.918C231.698 73.918 233.591 73.6633 235.083 73.1537V110.877Z" fill="black"/>
</svg>
