<svg width="749" height="795" viewBox="0 0 749 795" fill="none" xmlns="http://www.w3.org/2000/svg">
<path d="M725.416 125.318C721.376 115.332 713.864 106.954 704.123 101.567C694.381 96.1794 682.992 94.1064 671.839 95.6903C678.021 91.8205 685.04 89.3159 692.379 88.3612C699.717 87.4066 707.188 88.0262 714.24 90.1744C721.292 92.3226 727.746 95.9447 733.126 100.773C738.506 105.602 742.674 111.515 745.324 118.075C747.973 124.635 749.036 131.675 748.435 138.676C747.833 145.678 745.582 152.462 741.848 158.529C738.114 164.596 732.991 169.79 726.858 173.729C720.725 177.669 713.738 180.252 706.412 181.289C715.828 175.408 722.845 166.653 726.301 156.475C729.757 146.297 729.444 135.305 725.416 125.318Z" fill="white"/>
<g opacity="0.8">
<path d="M709.928 342.495C712.128 342.495 713.911 340.803 713.911 338.717C713.911 336.63 712.128 334.939 709.928 334.939C707.728 334.939 705.944 336.63 705.944 338.717C705.944 340.803 707.728 342.495 709.928 342.495Z" fill="white"/>
<path d="M640.218 567.017C642.418 567.017 644.202 565.326 644.202 563.239C644.202 561.153 642.418 559.462 640.218 559.462C638.018 559.462 636.235 561.153 636.235 563.239C636.235 565.326 638.018 567.017 640.218 567.017Z" fill="white"/>
<path d="M555.983 172.556C558.183 172.556 559.967 170.864 559.967 168.778C559.967 166.691 558.183 165 555.983 165C553.783 165 552 166.691 552 168.778C552 170.864 553.783 172.556 555.983 172.556Z" fill="white"/>
<path d="M732.983 7.55557C735.183 7.55557 736.967 5.8642 736.967 3.77779C736.967 1.69137 735.183 0 732.983 0C730.783 0 729 1.69137 729 3.77779C729 5.8642 730.783 7.55557 732.983 7.55557Z" fill="white"/>
<path d="M307.983 118.556C310.183 118.556 311.967 116.864 311.967 114.778C311.967 112.691 310.183 111 307.983 111C305.783 111 304 112.691 304 114.778C304 116.864 305.783 118.556 307.983 118.556Z" fill="white"/>
<path d="M3.9834 644.556C6.18337 644.556 7.96679 642.864 7.96679 640.778C7.96679 638.691 6.18337 637 3.9834 637C1.78343 637 0 638.691 0 640.778C0 642.864 1.78343 644.556 3.9834 644.556Z" fill="white"/>
</g>
</svg>
