<svg width="365" height="104" viewBox="0 0 365 104" fill="none" xmlns="http://www.w3.org/2000/svg">
<path d="M131.583 1.40638L121.454 38.1886H117.26L108.819 7.78918L100.813 38.1886H96.6743L86 1.73093L90.2479 1.02774L98.7438 32.3467L106.804 1.40638H110.997L119.384 32.3467L127.444 1.40638H131.583Z" fill="black"/>
<path d="M157.53 25.7476V25.3689C157.53 22.7365 157.13 20.3565 156.332 18.2289C155.569 16.1012 154.353 14.4064 152.683 13.1442C151.049 11.8821 148.907 11.251 146.256 11.251C143.642 11.251 141.409 11.846 139.558 13.0361C137.742 14.19 136.345 15.7947 135.364 17.8502C134.42 19.9057 133.948 22.2857 133.948 24.9903C133.948 27.7309 134.457 30.147 135.473 32.2386C136.49 34.3301 138.015 35.9528 140.048 37.1068C142.117 38.2607 144.695 38.8377 147.781 38.8377C149.088 38.8377 150.286 38.7115 151.376 38.4591C152.501 38.2427 153.536 37.9362 154.48 37.5395C155.46 37.1068 156.368 36.656 157.203 36.1872L155.787 33.0499C154.407 33.7351 153.1 34.294 151.866 34.7268C150.631 35.1234 149.252 35.3218 147.727 35.3218C145.548 35.3218 143.787 34.9071 142.444 34.0777C141.101 33.2483 140.102 32.1123 139.449 30.6699C138.832 29.2275 138.469 27.5867 138.36 25.7476H157.53ZM138.469 22.8266C138.65 21.2399 139.031 19.8516 139.612 18.6616C140.229 17.4716 141.064 16.552 142.117 15.9029C143.207 15.2178 144.532 14.8752 146.093 14.8752C147.618 14.8752 148.87 15.2178 149.851 15.9029C150.867 16.552 151.648 17.4716 152.193 18.6616C152.737 19.8516 153.1 21.2399 153.282 22.8266H138.469Z" fill="black"/>
<path d="M166.027 30.724C166.027 29.3537 166.481 28.1637 167.388 27.154C168.332 26.1082 169.694 25.5853 171.473 25.5853H178.389V31.5895C177.482 32.6352 176.392 33.5368 175.122 34.294C173.851 35.0513 172.453 35.43 170.928 35.43C169.803 35.43 168.877 35.1956 168.151 34.7268C167.425 34.258 166.88 33.663 166.517 32.9417C166.19 32.1845 166.027 31.4452 166.027 30.724ZM164.992 16.7684C165.972 16.3717 167.043 15.975 168.205 15.5784C169.403 15.1817 170.856 14.9834 172.562 14.9834C174.668 14.9834 176.156 15.5784 177.028 16.7684C177.936 17.9584 178.389 19.4549 178.389 21.258V22.7184H171.582C168.75 22.7184 166.444 23.4216 164.665 24.828C162.886 26.1983 161.997 28.1637 161.997 30.724C161.997 33.0319 162.741 34.9612 164.23 36.5118C165.718 38.0624 168.006 38.8377 171.092 38.8377C172.544 38.8377 173.996 38.4951 175.449 37.81C176.937 37.1248 178.099 36.3675 178.934 35.5381L179.479 38.1886H182.746V20.1221C182.746 18.3911 182.311 16.8585 181.439 15.5243C180.568 14.19 179.352 13.1442 177.79 12.387C176.265 11.6297 174.486 11.251 172.453 11.251C171.727 11.251 170.801 11.3592 169.676 11.5756C168.55 11.7559 167.443 12.0264 166.354 12.387C165.301 12.7115 164.429 13.1082 163.739 13.577L164.992 16.7684Z" fill="black"/>
<path d="M199.753 12.387H194.961V4.54369L190.604 5.7337V12.387H186.792L186.846 15.6325H190.604V31.3731C190.604 33.0319 190.912 34.4203 191.53 35.5381C192.147 36.656 193.018 37.5215 194.144 38.1345C195.269 38.7115 196.576 39 198.065 39C198.573 39 199.082 38.9459 199.59 38.8377C200.098 38.7656 200.57 38.6574 201.006 38.5132C201.442 38.3689 201.805 38.2247 202.095 38.0804L201.06 34.7268C200.806 34.835 200.443 34.9612 199.971 35.1054C199.535 35.2136 199.1 35.2677 198.664 35.2677C197.357 35.2677 196.413 34.853 195.832 34.0236C195.251 33.1942 194.961 32.1123 194.961 30.7781V15.6325H201.115L199.753 12.387Z" fill="black"/>
<path d="M211.588 19.5811C212.46 18.6796 213.404 17.8863 214.42 17.2011C215.437 16.4799 216.471 15.9029 217.524 15.4702C218.614 15.0374 219.594 14.8211 220.465 14.8211C222.281 14.8211 223.515 15.3981 224.169 16.552C224.858 17.706 225.203 19.1845 225.203 20.9875V38.1886H229.506V20.4466C229.506 18.6436 229.215 17.0569 228.634 15.6865C228.053 14.2802 227.146 13.1803 225.911 12.387C224.713 11.5576 223.152 11.1429 221.228 11.1429C220.066 11.1429 218.868 11.3412 217.633 11.7379C216.399 12.1345 215.237 12.6755 214.148 13.3606C213.059 14.0458 212.096 14.8211 211.261 15.6865L211.588 19.5811ZM211.588 38.1886V0L207.34 0.595007V38.1886H211.588Z" fill="black"/>
<path d="M258.101 25.7476V25.3689C258.101 22.7365 257.702 20.3565 256.903 18.2289C256.14 16.1012 254.924 14.4064 253.254 13.1442C251.62 11.8821 249.478 11.251 246.828 11.251C244.213 11.251 241.981 11.846 240.129 13.0361C238.314 14.19 236.916 15.7947 235.935 17.8502C234.991 19.9057 234.519 22.2857 234.519 24.9903C234.519 27.7309 235.028 30.147 236.044 32.2386C237.061 34.3301 238.586 35.9528 240.619 37.1068C242.689 38.2607 245.266 38.8377 248.352 38.8377C249.66 38.8377 250.858 38.7115 251.947 38.4591C253.072 38.2427 254.107 37.9362 255.051 37.5395C256.031 37.1068 256.939 36.656 257.774 36.1872L256.358 33.0499C254.979 33.7351 253.671 34.294 252.437 34.7268C251.203 35.1234 249.823 35.3218 248.298 35.3218C246.12 35.3218 244.359 34.9071 243.015 34.0777C241.672 33.2483 240.674 32.1123 240.02 30.6699C239.403 29.2275 239.04 27.5867 238.931 25.7476H258.101ZM239.04 22.8266C239.221 21.2399 239.602 19.8516 240.183 18.6616C240.801 17.4716 241.636 16.552 242.689 15.9029C243.778 15.2178 245.103 14.8752 246.664 14.8752C248.189 14.8752 249.442 15.2178 250.422 15.9029C251.439 16.552 252.219 17.4716 252.764 18.6616C253.308 19.8516 253.671 21.2399 253.853 22.8266H239.04Z" fill="black"/>
<path d="M267.578 38.1886V20.1221C268.377 19.3287 269.303 18.5714 270.356 17.8502C271.409 17.129 272.516 16.534 273.678 16.0652C274.876 15.5964 275.983 15.362 277 15.362L275.965 11.9542C275.021 11.9542 273.987 12.1886 272.861 12.6574C271.772 13.1262 270.719 13.7032 269.702 14.3883C268.722 15.0374 267.887 15.6325 267.197 16.1734L265.89 11.9542H263.33V38.1886H267.578Z" fill="black"/>
<path d="M123.758 67.7587C122.921 67.2538 121.92 66.8571 120.755 66.5687C119.626 66.2441 118.48 66.0097 117.315 65.8655C116.186 65.7212 115.239 65.6491 114.475 65.6491C111.781 65.6491 109.342 66.1359 107.157 67.1096C105.009 68.0832 103.171 69.4535 101.642 71.2205C100.149 72.9875 99.0023 75.043 98.2014 77.387C97.4005 79.7309 97 82.2732 97 85.0139C97 87.5742 97.3459 89.9903 98.0376 92.2621C98.7657 94.534 99.8397 96.5534 101.26 98.3204C102.716 100.051 104.518 101.422 106.666 102.431C108.814 103.441 111.308 103.946 114.147 103.946C115.203 103.946 116.332 103.856 117.533 103.675C118.734 103.495 119.881 103.243 120.973 102.918C122.102 102.594 123.048 102.233 123.813 101.836L122.175 98.6449C121.155 99.0777 120.009 99.4563 118.734 99.7809C117.46 100.105 115.877 100.268 113.983 100.268C112.017 100.268 110.252 99.871 108.686 99.0777C107.157 98.2843 105.847 97.1845 104.754 95.7781C103.699 94.3356 102.898 92.6949 102.352 90.8558C101.806 89.0166 101.533 87.0513 101.533 84.9598C101.533 81.8946 102.097 79.19 103.225 76.846C104.39 74.5021 105.938 72.663 107.867 71.3287C109.833 69.9945 112.036 69.3273 114.475 69.3273C115.713 69.3273 116.768 69.3994 117.642 69.5437C118.516 69.6519 119.317 69.8322 120.045 70.0846C120.81 70.301 121.592 70.5714 122.393 70.896L123.758 67.7587Z" fill="black"/>
<path d="M131.713 95.724C131.713 94.3537 132.168 93.1637 133.078 92.154C134.025 91.1082 135.39 90.5853 137.174 90.5853H144.109V96.5895C143.199 97.6352 142.107 98.5368 140.833 99.294C139.558 100.051 138.157 100.43 136.628 100.43C135.499 100.43 134.571 100.196 133.843 99.7268C133.115 99.258 132.569 98.663 132.204 97.9417C131.877 97.1845 131.713 96.4452 131.713 95.724ZM130.675 81.7684C131.658 81.3717 132.732 80.975 133.897 80.5784C135.099 80.1817 136.555 79.9834 138.266 79.9834C140.378 79.9834 141.87 80.5784 142.744 81.7684C143.654 82.9584 144.109 84.4549 144.109 86.258V87.7184H137.283C134.443 87.7184 132.132 88.4216 130.348 89.828C128.564 91.1983 127.672 93.1637 127.672 95.724C127.672 98.0319 128.418 99.9612 129.911 101.512C131.404 103.062 133.697 103.838 136.792 103.838C138.248 103.838 139.704 103.495 141.16 102.81C142.653 102.125 143.818 101.368 144.655 100.538L145.201 103.189H148.478V85.1221C148.478 83.3911 148.041 81.8585 147.167 80.5243C146.294 79.19 145.074 78.1442 143.509 77.387C141.979 76.6297 140.196 76.251 138.157 76.251C137.429 76.251 136.5 76.3592 135.372 76.5756C134.243 76.7559 133.133 77.0264 132.041 77.387C130.985 77.7115 130.111 78.1082 129.419 78.577L130.675 81.7684Z" fill="black"/>
<path d="M165.531 77.387H160.726V69.5437L156.357 70.7337V77.387H152.534L152.589 80.6325H156.357V96.3731C156.357 98.0319 156.666 99.4203 157.285 100.538C157.904 101.656 158.778 102.521 159.907 103.135C161.035 103.712 162.346 104 163.838 104C164.348 104 164.858 103.946 165.367 103.838C165.877 103.766 166.35 103.657 166.787 103.513C167.224 103.369 167.588 103.225 167.88 103.08L166.842 99.7268C166.587 99.835 166.223 99.9612 165.75 100.105C165.313 100.214 164.876 100.268 164.439 100.268C163.129 100.268 162.182 99.853 161.599 99.0236C161.017 98.1942 160.726 97.1123 160.726 95.7781V80.6325H166.897L165.531 77.387Z" fill="black"/>
<path d="M191.051 98.4827C190.031 98.9875 188.976 99.4202 187.883 99.7809C186.828 100.105 185.426 100.268 183.679 100.268C181.858 100.268 180.311 99.8169 179.037 98.9154C177.799 98.0139 176.871 96.7878 176.252 95.2372C175.633 93.6505 175.323 91.8835 175.323 89.9362C175.36 88.061 175.706 86.3662 176.361 84.8516C177.053 83.337 178.036 82.129 179.31 81.2275C180.584 80.3259 182.113 79.8752 183.897 79.8752C185.608 79.8752 187.01 80.0735 188.102 80.4702C189.194 80.8308 190.25 81.2275 191.269 81.6602L192.58 78.6852C191.852 78.1803 190.942 77.7476 189.849 77.387C188.794 77.0264 187.738 76.7559 186.682 76.5756C185.626 76.3592 184.734 76.251 184.006 76.251C181.349 76.251 179.037 76.846 177.071 78.0361C175.105 79.19 173.594 80.7947 172.538 82.8502C171.519 84.9057 170.991 87.2857 170.955 89.9903C170.955 92.7309 171.464 95.147 172.484 97.2386C173.503 99.3301 174.959 100.971 176.852 102.161C178.782 103.315 181.076 103.892 183.733 103.892C184.498 103.892 185.408 103.784 186.464 103.567C187.519 103.387 188.575 103.117 189.631 102.756C190.723 102.395 191.651 101.981 192.416 101.512L191.051 98.4827Z" fill="black"/>
<path d="M202.41 84.5811C203.284 83.6796 204.23 82.8863 205.25 82.2011C206.269 81.4799 207.307 80.9029 208.362 80.4702C209.454 80.0374 210.437 79.8211 211.311 79.8211C213.131 79.8211 214.369 80.3981 215.025 81.552C215.716 82.706 216.062 84.1845 216.062 85.9875V103.189H220.376V85.4466C220.376 83.6436 220.085 82.0569 219.503 80.6865C218.92 79.2802 218.01 78.1803 216.772 77.387C215.571 76.5576 214.005 76.1429 212.076 76.1429C210.911 76.1429 209.709 76.3412 208.471 76.7379C207.234 77.1345 206.069 77.6755 204.977 78.3606C203.884 79.0458 202.92 79.8211 202.082 80.6865L202.41 84.5811ZM202.41 103.189V65L198.15 65.595V103.189H202.41Z" fill="black"/>
<path d="M249.049 90.7476V90.3689C249.049 87.7365 248.649 85.3565 247.848 83.2289C247.083 81.1012 245.864 79.4064 244.189 78.1442C242.551 76.8821 240.403 76.251 237.745 76.251C235.124 76.251 232.885 76.846 231.028 78.0361C229.208 79.19 227.806 80.7947 226.824 82.8502C225.877 84.9057 225.404 87.2857 225.404 89.9903C225.404 92.7309 225.913 95.147 226.933 97.2386C227.952 99.3301 229.481 100.953 231.52 102.107C233.595 103.261 236.18 103.838 239.274 103.838C240.585 103.838 241.786 103.712 242.879 103.459C244.007 103.243 245.045 102.936 245.991 102.54C246.974 102.107 247.884 101.656 248.722 101.187L247.302 98.0499C245.918 98.7351 244.608 99.294 243.37 99.7268C242.132 100.123 240.749 100.322 239.22 100.322C237.035 100.322 235.27 99.9071 233.923 99.0777C232.576 98.2483 231.575 97.1123 230.919 95.6699C230.3 94.2275 229.936 92.5867 229.827 90.7476H249.049ZM229.936 87.8266C230.118 86.2399 230.501 84.8516 231.083 83.6616C231.702 82.4716 232.539 81.552 233.595 80.9029C234.687 80.2178 236.016 79.8752 237.582 79.8752C239.111 79.8752 240.367 80.2178 241.35 80.9029C242.369 81.552 243.152 82.4716 243.698 83.6616C244.244 84.8516 244.608 86.2399 244.79 87.8266H229.936Z" fill="black"/>
<path d="M258.553 103.189V85.1221C259.354 84.3287 260.282 83.5714 261.338 82.8502C262.393 82.129 263.504 81.534 264.669 81.0652C265.87 80.5964 266.981 80.362 268 80.362L266.962 76.9542C266.016 76.9542 264.978 77.1886 263.85 77.6574C262.758 78.1262 261.702 78.7032 260.682 79.3883C259.699 80.0374 258.862 80.6325 258.17 81.1734L256.86 76.9542H254.293V103.189H258.553Z" fill="black"/>
<path d="M49.962 70H15.038C11.3043 69.9761 7.71126 68.5581 4.94951 66.0187C2.18776 63.4792 0.45229 59.9976 0.0767712 56.2432C-0.298748 52.4887 0.712189 48.7265 2.91522 45.6798C5.11825 42.6331 8.35786 40.5171 12.0112 39.7385C13.0163 35.0004 15.5987 30.7541 19.3274 27.7079C23.056 24.6617 27.7055 23 32.5 23C37.2945 23 41.944 24.6617 45.6726 27.7079C49.4013 30.7541 51.9837 35.0004 52.9888 39.7385C56.6421 40.5171 59.8817 42.6331 62.0848 45.6798C64.2878 48.7265 65.2987 52.4887 64.9232 56.2432C64.5477 59.9976 62.8122 63.4792 60.0505 66.0187C57.2887 68.5581 53.6957 69.9761 49.962 70ZM32.5 27.6432C28.5271 27.6472 24.6924 29.1178 21.7169 31.7785C18.7414 34.4391 16.8299 38.1067 16.3418 42.0916L16.2021 44.1153H14.1998C11.421 44.2277 8.80027 45.451 6.914 47.5163C5.02773 49.5816 4.03048 52.3196 4.14163 55.1281C4.25278 57.9365 5.46323 60.5853 7.50668 62.4917C9.55014 64.3981 12.2592 65.406 15.038 65.2937H49.962C52.7408 65.406 55.4499 64.3981 57.4933 62.4917C59.5368 60.5853 60.7472 57.9365 60.8584 55.1281C60.9695 52.3196 59.9723 49.5816 58.086 47.5163C56.1997 45.451 53.579 44.2277 50.8002 44.1153H48.7979L48.5651 42.1857C48.1 38.1998 46.211 34.5225 43.2529 31.8448C40.2947 29.167 36.4711 27.673 32.5 27.6432Z" fill="black"/>
<path d="M27.4727 87.9998C27.0834 88.0042 26.6992 87.9168 26.3559 87.746C25.7714 87.4693 25.3285 86.9886 25.1239 86.4091C24.9193 85.8295 24.9696 85.1982 25.264 84.6531L30.2273 75.4208C30.3585 75.1278 30.5533 74.8631 30.7994 74.6433C31.0456 74.4234 31.3378 74.2532 31.6579 74.1431C31.978 74.0331 32.3191 73.9857 32.6598 74.0038C33.0005 74.0219 33.3336 74.1051 33.6381 74.2483C33.9426 74.3915 34.2122 74.5916 34.4298 74.8361C34.6475 75.0806 34.8085 75.3642 34.903 75.6691C34.9975 75.9741 35.0233 76.294 34.9789 76.6086C34.9344 76.9233 34.8207 77.2261 34.6447 77.4981L29.6814 86.7304C29.4751 87.111 29.1596 87.4311 28.7698 87.6552C28.3799 87.8793 27.931 87.9986 27.4727 87.9998Z" fill="black"/>
<path d="M41.4727 87.9998C41.0834 88.0042 40.6992 87.9168 40.3559 87.746C39.7714 87.4693 39.3285 86.9886 39.1239 86.4091C38.9192 85.8295 38.9696 85.1982 39.264 84.6531L44.2273 75.4208C44.3585 75.1278 44.5533 74.8631 44.7994 74.6433C45.0456 74.4234 45.3378 74.2532 45.6579 74.1431C45.978 74.0331 46.3191 73.9857 46.6598 74.0038C47.0005 74.0219 47.3336 74.1051 47.6381 74.2483C47.9426 74.3915 48.2122 74.5916 48.4298 74.8361C48.6475 75.0806 48.8085 75.3642 48.903 75.6691C48.9975 75.9741 49.0233 76.294 48.9789 76.6086C48.9344 76.9233 48.8207 77.2261 48.6447 77.4981L43.6814 86.7304C43.4751 87.111 43.1596 87.4311 42.7698 87.6552C42.3799 87.8793 41.931 87.9986 41.4727 87.9998Z" fill="black"/>
<path d="M14.2254 87.9998C13.875 88.0042 13.5293 87.9168 13.2203 87.746C12.6943 87.4693 12.2956 86.9886 12.1115 86.4091C11.9273 85.8295 11.9727 85.1982 12.2376 84.6531L16.7046 75.4208C16.8227 75.1278 16.998 74.8631 17.2195 74.6433C17.441 74.4234 17.7041 74.2532 17.9922 74.1431C18.2802 74.0331 18.5872 73.9857 18.8938 74.0038C19.2005 74.0219 19.5002 74.1051 19.7743 74.2483C20.0484 74.3915 20.291 74.5916 20.4868 74.8361C20.6827 75.0806 20.8277 75.3642 20.9127 75.6691C20.9977 75.9741 21.021 76.294 20.981 76.6086C20.941 76.9233 20.8386 77.2261 20.6803 77.4981L16.2132 86.7304C16.0276 87.111 15.7437 87.4311 15.3928 87.6552C15.0419 87.8793 14.6379 87.9986 14.2254 87.9998Z" fill="black"/>
<path fill-rule="evenodd" clip-rule="evenodd" d="M328 72.6875C332.498 72.6875 336.811 70.8767 339.991 67.6534C343.172 64.4301 344.958 60.0584 344.958 55.5C344.958 50.9416 343.172 46.5699 339.991 43.3466C336.811 40.1233 332.498 38.3125 328 38.3125C323.502 38.3125 319.189 40.1233 316.009 43.3466C312.828 46.5699 311.042 50.9416 311.042 55.5C311.042 60.0584 312.828 64.4301 316.009 67.6534C319.189 70.8767 323.502 72.6875 328 72.6875ZM328 77.375C330.834 77.375 333.641 76.8092 336.26 75.7099C338.878 74.6105 341.258 72.9992 343.262 70.968C345.266 68.9367 346.856 66.5252 347.94 63.8712C349.025 61.2172 349.583 58.3727 349.583 55.5C349.583 52.6273 349.025 49.7828 347.94 47.1288C346.856 44.4748 345.266 42.0633 343.262 40.032C341.258 38.0008 338.878 36.3895 336.26 35.2901C333.641 34.1908 330.834 33.625 328 33.625C322.276 33.625 316.786 35.9297 312.738 40.032C308.691 44.1344 306.417 49.6984 306.417 55.5C306.417 61.3016 308.691 66.8656 312.738 70.968C316.786 75.0703 322.276 77.375 328 77.375ZM365 55.5C365 56.1216 364.756 56.7177 364.323 57.1573C363.889 57.5968 363.301 57.8438 362.688 57.8438H354.979C354.366 57.8438 353.778 57.5968 353.344 57.1573C352.91 56.7177 352.667 56.1216 352.667 55.5C352.667 54.8784 352.91 54.2823 353.344 53.8427C353.778 53.4032 354.366 53.1562 354.979 53.1562H362.688C363.301 53.1562 363.889 53.4032 364.323 53.8427C364.756 54.2823 365 54.8784 365 55.5ZM303.333 55.5C303.333 56.1216 303.09 56.7177 302.656 57.1573C302.222 57.5968 301.634 57.8438 301.021 57.8438H293.312C292.699 57.8438 292.111 57.5968 291.677 57.1573C291.244 56.7177 291 56.1216 291 55.5C291 54.8784 291.244 54.2823 291.677 53.8427C292.111 53.4032 292.699 53.1562 293.312 53.1562H301.021C301.634 53.1562 302.222 53.4032 302.656 53.8427C303.09 54.2823 303.333 54.8784 303.333 55.5ZM354.162 28.9844C354.595 29.4238 354.838 30.0195 354.838 30.6406C354.838 31.2617 354.595 31.8574 354.162 32.2969L348.711 37.8219C348.272 38.2359 347.693 38.4613 347.093 38.4505C346.494 38.4398 345.923 38.1939 345.499 37.7644C345.075 37.335 344.833 36.7557 344.822 36.1485C344.812 35.5413 345.034 34.9537 345.442 34.5094L350.891 28.9844C351.105 28.7666 351.36 28.5938 351.641 28.4759C351.922 28.358 352.223 28.2974 352.526 28.2974C352.83 28.2974 353.131 28.358 353.412 28.4759C353.692 28.5938 353.947 28.7666 354.162 28.9844ZM310.558 73.1781C310.991 73.6176 311.234 74.2133 311.234 74.8344C311.234 75.4555 310.991 76.0512 310.558 76.4906L305.106 82.0156C304.895 82.2459 304.639 82.4306 304.356 82.5587C304.072 82.6868 303.766 82.7557 303.455 82.7612C303.145 82.7668 302.836 82.7089 302.548 82.591C302.26 82.4731 301.999 82.2977 301.779 82.0751C301.56 81.8526 301.387 81.5875 301.27 81.2956C301.154 81.0038 301.097 80.6912 301.102 80.3765C301.108 80.0618 301.176 79.7514 301.302 79.464C301.428 79.1765 301.611 78.9177 301.838 78.7031L307.286 73.1781C307.501 72.9603 307.756 72.7876 308.037 72.6697C308.317 72.5518 308.618 72.4911 308.922 72.4911C309.226 72.4911 309.527 72.5518 309.807 72.6697C310.088 72.7876 310.343 72.9603 310.558 73.1781ZM328 18C328.613 18 329.202 18.2469 329.635 18.6865C330.069 19.126 330.312 19.7221 330.312 20.3438V28.1563C330.312 28.7779 330.069 29.374 329.635 29.8135C329.202 30.2531 328.613 30.5 328 30.5C327.387 30.5 326.798 30.2531 326.365 29.8135C325.931 29.374 325.688 28.7779 325.688 28.1563V20.3438C325.688 19.7221 325.931 19.126 326.365 18.6865C326.798 18.2469 327.387 18 328 18ZM328 80.5C328.613 80.5 329.202 80.7469 329.635 81.1865C330.069 81.626 330.312 82.2222 330.312 82.8438V90.6562C330.312 91.2779 330.069 91.874 329.635 92.3135C329.202 92.7531 328.613 93 328 93C327.387 93 326.798 92.7531 326.365 92.3135C325.931 91.874 325.688 91.2779 325.688 90.6562V82.8438C325.688 82.2222 325.931 81.626 326.365 81.1865C326.798 80.7469 327.387 80.5 328 80.5ZM301.838 28.9844C302.272 28.5455 302.859 28.2989 303.472 28.2989C304.085 28.2989 304.673 28.5455 305.106 28.9844L310.558 34.5094C310.785 34.7239 310.967 34.9827 311.093 35.2702C311.22 35.5577 311.288 35.868 311.293 36.1827C311.299 36.4974 311.242 36.81 311.125 37.1019C311.009 37.3937 310.836 37.6588 310.616 37.8814C310.397 38.1039 310.135 38.2794 309.847 38.3973C309.559 38.5151 309.251 38.573 308.94 38.5675C308.63 38.5619 308.324 38.493 308.04 38.3649C307.756 38.2368 307.501 38.0521 307.289 37.8219L301.838 32.2969C301.405 31.8574 301.162 31.2617 301.162 30.6406C301.162 30.0195 301.405 29.4238 301.838 28.9844ZM345.442 73.1781C345.876 72.7392 346.464 72.4927 347.077 72.4927C347.689 72.4927 348.277 72.7392 348.711 73.1781L354.162 78.7031C354.571 79.1474 354.793 79.7351 354.782 80.3423C354.772 80.9494 354.529 81.5288 354.105 81.9582C353.682 82.3876 353.11 82.6336 352.511 82.6443C351.912 82.655 351.332 82.4296 350.894 82.0156L345.442 76.4938C345.228 76.2761 345.057 76.0177 344.941 75.7332C344.824 75.4487 344.765 75.1439 344.765 74.8359C344.765 74.528 344.824 74.2231 344.941 73.9387C345.057 73.6542 345.228 73.3958 345.442 73.1781Z" fill="black"/>
</svg>
