<svg width="357" height="57" viewBox="0 0 357 57" fill="none" xmlns="http://www.w3.org/2000/svg">
<path fill-rule="evenodd" clip-rule="evenodd" d="M10 0.277832C4.47715 0.277832 0 4.75499 0 10.2778V46.3524C0 51.8753 4.47715 56.3524 10 56.3524H347C352.523 56.3524 357 51.8753 357 46.3524V10.2778C357 4.75498 352.523 0.277832 347 0.277832H10ZM107.052 23.5541C108.719 23.5541 110.06 24.0541 111.077 25.0541C112.11 26.0541 112.627 27.5374 112.627 29.5041V37.2041H108.727V30.1041C108.727 29.0374 108.494 28.2457 108.027 27.7291C107.56 27.1957 106.885 26.9291 106.002 26.9291C105.019 26.9291 104.235 27.2374 103.652 27.8541C103.069 28.4541 102.777 29.3541 102.777 30.5541V37.2041H98.8772V18.6541H102.777V25.1541C103.294 24.6374 103.919 24.2457 104.652 23.9791C105.385 23.6957 106.185 23.5541 107.052 23.5541ZM96.525 19.7041L90.8 37.2041H86.45L82.6 25.3541L78.625 37.2041H74.3L68.55 19.7041H72.75L76.7 32.0041L80.825 19.7041H84.575L88.575 32.1041L92.65 19.7041H96.525ZM126.387 25.0541C125.271 24.0541 123.671 23.5541 121.587 23.5541C120.504 23.5541 119.446 23.6957 118.412 23.9791C117.396 24.2624 116.521 24.6624 115.787 25.1791L117.187 27.9041C117.671 27.5207 118.254 27.2207 118.937 27.0041C119.637 26.7707 120.346 26.6541 121.062 26.6541C122.096 26.6541 122.871 26.8874 123.387 27.3541C123.904 27.8041 124.162 28.4541 124.162 29.3041H121.062C119.096 29.3041 117.637 29.6624 116.687 30.3791C115.754 31.0957 115.287 32.0791 115.287 33.3291C115.287 34.1124 115.487 34.8124 115.887 35.4291C116.287 36.0457 116.862 36.5291 117.612 36.8791C118.379 37.2291 119.279 37.4041 120.312 37.4041C122.312 37.4041 123.679 36.7791 124.412 35.5291V37.2041H128.062V29.5291C128.062 27.5291 127.504 26.0374 126.387 25.0541ZM123.062 34.3291C122.546 34.6291 121.954 34.7791 121.287 34.7791C120.604 34.7791 120.062 34.6374 119.662 34.3541C119.279 34.0541 119.087 33.6541 119.087 33.1541C119.087 32.1041 119.887 31.5791 121.487 31.5791H124.162V32.9541C123.946 33.5541 123.579 34.0124 123.062 34.3291ZM140.267 36.5541C139.884 36.8374 139.409 37.0541 138.842 37.2041C138.292 37.3374 137.709 37.4041 137.092 37.4041C135.492 37.4041 134.25 36.9957 133.367 36.1791C132.5 35.3624 132.067 34.1624 132.067 32.5791V27.0541H129.992V24.0541H132.067V20.7791H135.967V24.0541H139.317V27.0541H135.967V32.5291C135.967 33.0957 136.109 33.5374 136.392 33.8541C136.692 34.1541 137.109 34.3041 137.642 34.3041C138.259 34.3041 138.784 34.1374 139.217 33.8041L140.267 36.5541ZM143.706 37.0041C144.773 37.2707 145.865 37.4041 146.981 37.4041C148.298 37.4041 149.431 37.2291 150.381 36.8791C151.348 36.5124 152.081 36.0041 152.581 35.3541C153.081 34.7041 153.331 33.9624 153.331 33.1291C153.331 32.1457 153.073 31.3791 152.556 30.8291C152.04 30.2791 151.431 29.9041 150.731 29.7041C150.031 29.4874 149.131 29.2874 148.031 29.1041C147.048 28.9541 146.331 28.7957 145.881 28.6291C145.431 28.4624 145.206 28.1707 145.206 27.7541C145.206 27.3874 145.415 27.0874 145.831 26.8541C146.248 26.6207 146.873 26.5041 147.706 26.5041C149.106 26.5041 150.398 26.8374 151.581 27.5041L152.881 24.7291C152.265 24.3624 151.481 24.0791 150.531 23.8791C149.598 23.6624 148.656 23.5541 147.706 23.5541C146.423 23.5541 145.306 23.7374 144.356 24.1041C143.423 24.4707 142.706 24.9874 142.206 25.6541C141.723 26.3041 141.481 27.0541 141.481 27.9041C141.481 28.9207 141.74 29.7041 142.256 30.2541C142.79 30.8041 143.415 31.1874 144.131 31.4041C144.848 31.6207 145.756 31.8124 146.856 31.9791C147.79 32.0957 148.481 32.2374 148.931 32.4041C149.381 32.5707 149.606 32.8457 149.606 33.2291C149.606 34.0457 148.781 34.4541 147.131 34.4541C146.315 34.4541 145.481 34.3374 144.631 34.1041C143.781 33.8541 143.056 33.5374 142.456 33.1541L141.156 35.9541C141.79 36.3707 142.64 36.7207 143.706 37.0041ZM161.163 23.5541C163.246 23.5541 164.846 24.0541 165.962 25.0541C167.079 26.0374 167.638 27.5291 167.638 29.5291V37.2041H163.988V35.5291C163.254 36.7791 161.887 37.4041 159.887 37.4041C158.854 37.4041 157.954 37.2291 157.188 36.8791C156.438 36.5291 155.863 36.0457 155.462 35.4291C155.062 34.8124 154.863 34.1124 154.863 33.3291C154.863 32.0791 155.329 31.0957 156.262 30.3791C157.212 29.6624 158.671 29.3041 160.637 29.3041H163.738C163.738 28.4541 163.479 27.8041 162.962 27.3541C162.446 26.8874 161.671 26.6541 160.637 26.6541C159.921 26.6541 159.212 26.7707 158.512 27.0041C157.829 27.2207 157.246 27.5207 156.762 27.9041L155.363 25.1791C156.096 24.6624 156.971 24.2624 157.988 23.9791C159.021 23.6957 160.079 23.5541 161.163 23.5541ZM160.863 34.7791C161.529 34.7791 162.121 34.6291 162.637 34.3291C163.154 34.0124 163.521 33.5541 163.738 32.9541V31.5791H161.062C159.462 31.5791 158.663 32.1041 158.663 33.1541C158.663 33.6541 158.854 34.0541 159.238 34.3541C159.637 34.6374 160.179 34.7791 160.863 34.7791ZM182.517 24.4291C181.501 23.8457 180.367 23.5541 179.117 23.5541C177.267 23.5541 175.859 24.1374 174.892 25.3041V23.7541H171.167V42.0541H175.067V35.7791C176.051 36.8624 177.401 37.4041 179.117 37.4041C180.367 37.4041 181.501 37.1207 182.517 36.5541C183.551 35.9707 184.359 35.1624 184.942 34.1291C185.526 33.0791 185.817 31.8624 185.817 30.4791C185.817 29.0957 185.526 27.8874 184.942 26.8541C184.359 25.8041 183.551 24.9957 182.517 24.4291ZM180.892 33.2041C180.259 33.8707 179.442 34.2041 178.442 34.2041C177.442 34.2041 176.617 33.8707 175.967 33.2041C175.334 32.5207 175.017 31.6124 175.017 30.4791C175.017 29.3457 175.334 28.4457 175.967 27.7791C176.617 27.0957 177.442 26.7541 178.442 26.7541C179.442 26.7541 180.259 27.0957 180.892 27.7791C181.542 28.4457 181.867 29.3457 181.867 30.4791C181.867 31.6124 181.542 32.5207 180.892 33.2041ZM196.378 23.5541C197.628 23.5541 198.761 23.8457 199.778 24.4291C200.811 24.9957 201.62 25.8041 202.203 26.8541C202.786 27.8874 203.078 29.0957 203.078 30.4791C203.078 31.8624 202.786 33.0791 202.203 34.1291C201.62 35.1624 200.811 35.9707 199.778 36.5541C198.761 37.1207 197.628 37.4041 196.378 37.4041C194.661 37.4041 193.311 36.8624 192.328 35.7791V42.0541H188.428V23.7541H192.153V25.3041C193.12 24.1374 194.528 23.5541 196.378 23.5541ZM195.703 34.2041C196.703 34.2041 197.52 33.8707 198.153 33.2041C198.803 32.5207 199.128 31.6124 199.128 30.4791C199.128 29.3457 198.803 28.4457 198.153 27.7791C197.52 27.0957 196.703 26.7541 195.703 26.7541C194.703 26.7541 193.878 27.0957 193.228 27.7791C192.595 28.4457 192.278 29.3457 192.278 30.4791C192.278 31.6124 192.595 32.5207 193.228 33.2041C193.878 33.8707 194.703 34.2041 195.703 34.2041ZM233.994 25.0541C233.01 24.0541 231.677 23.5541 229.994 23.5541C228.994 23.5541 228.069 23.7457 227.219 24.1291C226.385 24.5124 225.694 25.0541 225.144 25.7541C224.677 25.0374 224.06 24.4957 223.294 24.1291C222.527 23.7457 221.669 23.5541 220.719 23.5541C219.852 23.5541 219.052 23.7041 218.319 24.0041C217.602 24.3041 216.994 24.7374 216.494 25.3041V23.7541H212.769V37.2041H216.669V30.4541C216.669 29.2874 216.935 28.4124 217.469 27.8291C218.002 27.2291 218.719 26.9291 219.619 26.9291C221.319 26.9291 222.169 27.9874 222.169 30.1041V37.2041H226.069V30.4541C226.069 29.2874 226.335 28.4124 226.869 27.8291C227.402 27.2291 228.127 26.9291 229.044 26.9291C229.86 26.9291 230.485 27.1957 230.919 27.7291C231.369 28.2457 231.594 29.0374 231.594 30.1041V37.2041H235.494V29.5041C235.494 27.5207 234.994 26.0374 233.994 25.0541ZM252.236 31.5791H242.061C242.244 32.4124 242.678 33.0707 243.361 33.5541C244.044 34.0374 244.894 34.2791 245.911 34.2791C246.611 34.2791 247.228 34.1791 247.761 33.9791C248.311 33.7624 248.819 33.4291 249.286 32.9791L251.361 35.2291C250.094 36.6791 248.244 37.4041 245.811 37.4041C244.294 37.4041 242.953 37.1124 241.786 36.5291C240.619 35.9291 239.719 35.1041 239.086 34.0541C238.453 33.0041 238.136 31.8124 238.136 30.4791C238.136 29.1624 238.444 27.9791 239.061 26.9291C239.694 25.8624 240.553 25.0374 241.636 24.4541C242.736 23.8541 243.961 23.5541 245.311 23.5541C246.628 23.5541 247.819 23.8374 248.886 24.4041C249.953 24.9707 250.786 25.7874 251.386 26.8541C252.003 27.9041 252.311 29.1291 252.311 30.5291C252.311 30.5791 252.286 30.9291 252.236 31.5791ZM245.336 26.5041C244.453 26.5041 243.711 26.7541 243.111 27.2541C242.511 27.7541 242.144 28.4374 242.011 29.3041H248.636C248.503 28.4541 248.136 27.7791 247.536 27.2791C246.936 26.7624 246.203 26.5041 245.336 26.5041ZM269.288 29.9791H273.638V26.9291H269.288V22.6791H266.062V26.9291H261.737V29.9791H266.062V34.2291H269.288V29.9791Z" fill="white"/>
</svg>
